<svg width="76" height="74" viewBox="0 0 76 74" fill="none" xmlns="http://www.w3.org/2000/svg">
<path d="M37.7793 61.1805C51.3491 61.1805 62.3496 50.5106 62.3496 37.3486C62.3496 24.1865 51.3491 13.5166 37.7793 13.5166C24.2095 13.5166 13.209 24.1865 13.209 37.3486C13.209 50.5106 24.2095 61.1805 37.7793 61.1805Z" stroke="black" stroke-width="3"/>
<path d="M37.7791 51.1067C45.6129 51.1067 51.9635 44.947 51.9635 37.3486C51.9635 29.7503 45.6129 23.5906 37.7791 23.5906C29.9453 23.5906 23.5947 29.7503 23.5947 37.3486C23.5947 44.947 29.9453 51.1067 37.7791 51.1067Z" stroke="black" stroke-width="3"/>
<path d="M37.7793 2V30.3407" stroke="black" stroke-width="3" stroke-linecap="round"/>
<path d="M37.7793 43.7897V72.1304" stroke="black" stroke-width="3" stroke-linecap="round"/>
<path d="M44.4199 37.3486H73.6387" stroke="black" stroke-width="3" stroke-linecap="round"/>
<path d="M2 37.3486H31.0594" stroke="black" stroke-width="3" stroke-linecap="round"/>
</svg>
