<svg width="14" height="14" viewBox="0 0 14 14" fill="none" xmlns="http://www.w3.org/2000/svg">
<path d="M11.9916 13.6554C12.451 14.1148 13.1959 14.1148 13.6554 13.6554C14.1149 13.1959 14.1149 12.451 13.6554 11.9915L8.66386 7L13.6554 2.00847C14.1149 1.54901 14.1149 0.804078 13.6554 0.344619C13.1959 -0.114841 12.451 -0.114841 11.9916 0.344619L7.00001 5.33615L2.00845 0.344595C1.54899 -0.114865 0.804056 -0.114865 0.344596 0.344594C-0.114864 0.804053 -0.114864 1.54898 0.344596 2.00844L5.33616 7L0.344595 11.9916C-0.114865 12.451 -0.114865 13.1959 0.344595 13.6554C0.804055 14.1149 1.54899 14.1149 2.00845 13.6554L7.00001 8.66385L11.9916 13.6554Z" fill="#252930"/>
</svg>
