<svg width="29" height="29" viewBox="0 0 29 29" fill="none" xmlns="http://www.w3.org/2000/svg">
<path d="M14.5 0C6.49185 0 0 6.49214 0 14.5C0 22.5079 6.49185 29 14.5 29C22.5082 29 29 22.5079 29 14.5C29 6.49214 22.5082 0 14.5 0ZM17.6614 8.55849H23.0887V10.1783H17.6614V8.55849ZM14.9183 17.0547C14.9183 21.0696 10.7399 20.9376 10.7399 20.9376H6.91075H6.79831H3.89475V7.78357H6.79831H6.91075H10.7396C12.8199 7.78357 14.462 8.932 14.462 11.2858C14.462 13.6399 12.4547 13.7892 12.4547 13.7892C15.1008 13.7892 14.9183 17.0547 14.9183 17.0547ZM20.5685 19.1293C22.755 19.1293 22.6776 17.7142 22.6776 17.7142H24.9925C24.9925 21.4698 20.4914 21.2126 20.4914 21.2126C15.0898 21.2126 15.4372 16.1839 15.4372 16.1839C15.4372 16.1839 15.433 11.1304 20.4908 11.1304C25.8152 11.1304 25.0696 16.8399 25.0696 16.8399H18.2535C18.2535 19.2842 20.5685 19.1293 20.5685 19.1293Z" fill="white"/>
</svg>
