<svg width="31" height="29" viewBox="0 0 31 29" fill="none" xmlns="http://www.w3.org/2000/svg">
<path d="M15.5 0C6.93625 0 0 6.65729 0 14.868C0 21.4382 4.44075 27.0099 10.5981 28.9743C11.3731 29.1143 11.6573 28.6541 11.6573 28.2594C11.6573 27.9064 11.6444 26.9709 11.6379 25.7314C7.32633 26.6279 6.417 23.7368 6.417 23.7368C5.71175 22.0208 4.69262 21.5618 4.69262 21.5618C3.28858 20.6401 4.80113 20.659 4.80113 20.659C6.35758 20.7624 7.17521 22.191 7.17521 22.191C8.55729 24.4643 10.8035 23.8074 11.6896 23.4279C11.8291 22.4658 12.2282 21.8115 12.6713 21.4395C9.22896 21.0676 5.611 19.7891 5.611 14.0925C5.611 12.4698 6.21162 11.1434 7.20621 10.1032C7.03183 9.72746 6.50871 8.2157 7.34183 6.16808C7.34183 6.16808 8.63996 5.76965 11.6043 7.69245C12.8443 7.36211 14.1618 7.1982 15.4793 7.19063C16.7968 7.1982 18.1143 7.36211 19.3543 7.69245C22.2993 5.76965 23.5975 6.16808 23.5975 6.16808C24.4306 8.2157 23.9075 9.72746 23.7525 10.1032C24.7406 11.1434 25.3412 12.4698 25.3412 14.0925C25.3412 19.8042 21.7181 21.0613 18.2693 21.4269C18.8118 21.8732 19.3156 22.7848 19.3156 24.1781C19.3156 26.1677 19.2962 27.7665 19.2962 28.2494C19.2962 28.639 19.5675 29.1042 20.3618 28.9554C26.5631 27.0036 31 21.4282 31 14.868C31 6.65729 24.0599 0 15.5 0Z" fill="#F7EB2A"/>
</svg>
