<svg width="32" height="32" viewBox="0 0 32 32" fill="none" xmlns="http://www.w3.org/2000/svg">
<circle cx="16" cy="16" r="16" fill="#005BFF"/>
<path d="M13.974 12.9942C14.2617 12.9942 14.495 12.7687 14.495 12.4906C14.495 12.2125 14.2617 11.9871 13.974 11.9871C13.6863 11.9871 13.4531 12.2125 13.4531 12.4906C13.4531 12.7687 13.6863 12.9942 13.974 12.9942Z" fill="#F7EB2A"/>
<path d="M10.4076 21.8592C10.6953 21.8592 10.9286 21.6337 10.9286 21.3556C10.9286 21.0775 10.6953 20.8521 10.4076 20.8521C10.1199 20.8521 9.88672 21.0775 9.88672 21.3556C9.88672 21.6337 10.1199 21.8592 10.4076 21.8592Z" fill="#F7EB2A"/>
<path d="M22.2084 21.8592C22.4961 21.8592 22.7293 21.6337 22.7293 21.3556C22.7293 21.0775 22.4961 20.8521 22.2084 20.8521C21.9207 20.8521 21.6875 21.0775 21.6875 21.3556C21.6875 21.6337 21.9207 21.8592 22.2084 21.8592Z" fill="#F7EB2A"/>
<path d="M22.7302 21.3554C22.7302 21.6335 22.4968 21.8591 22.2092 21.8591C22.0018 21.8591 21.8229 21.742 21.7393 21.5725C21.7912 21.5895 21.8469 21.5988 21.905 21.5988C22.1929 21.5988 22.4261 21.3734 22.4261 21.0953C22.4261 21.0177 22.4077 20.9441 22.3752 20.8782C22.5815 20.9451 22.7302 21.1335 22.7302 21.3554Z" fill="#F7EB2A"/>
<path d="M14.4949 12.4907C14.4949 12.7687 14.2615 12.9943 13.9738 12.9943C13.7665 12.9943 13.5876 12.8773 13.5039 12.7078C13.5558 12.7248 13.6116 12.734 13.6697 12.734C13.9576 12.734 14.1907 12.5086 14.1907 12.2306C14.1907 12.153 14.1724 12.0793 14.1398 12.0134C14.3462 12.0803 14.4949 12.2688 14.4949 12.4907V12.4907Z" fill="#F7EB2A"/>
<path d="M10.9285 21.3554C10.9285 21.6335 10.6951 21.8591 10.4074 21.8591C10.2001 21.8591 10.0212 21.742 9.9375 21.5725C9.9894 21.5895 10.0452 21.5988 10.1033 21.5988C10.3911 21.5988 10.6243 21.3734 10.6243 21.0953C10.6243 21.0177 10.606 20.9441 10.5734 20.8782C10.7797 20.9451 10.9285 21.1335 10.9285 21.3554Z" fill="#F7EB2A"/>
<path d="M18.8243 20.8564C19.6545 21.0336 20.8997 21.5142 21.684 22.8167C21.9322 23.2289 21.7504 23.7585 21.2968 23.9463C20.8654 24.125 20.365 23.9195 20.203 23.4937C19.9675 22.8749 19.5052 22.0019 18.6218 21.2406C18.4438 21.0873 18.5915 20.8067 18.8243 20.8564Z" fill="#F7EB2A"/>
<path d="M21.2967 23.946C21.2657 23.9589 21.2342 23.9697 21.2027 23.9786C21.3597 23.738 21.3793 23.4218 21.2187 23.1547C20.5218 21.9976 19.4611 21.4889 18.6509 21.2655C18.6413 21.2573 18.6315 21.2488 18.6217 21.2403C18.4438 21.0868 18.5915 20.8063 18.8244 20.8559C19.6545 21.0331 20.8996 21.5139 21.684 22.8162C21.9322 23.2286 21.7504 23.758 21.2967 23.946V23.946Z" fill="#F7EB2A"/>
<path d="M14.632 15.8927C14.4255 15.1218 13.7835 13.4202 12.0948 13.1283C11.664 13.0539 11.2472 13.316 11.1393 13.7259C11.0289 14.1453 11.2796 14.5735 11.7078 14.6997C12.303 14.875 13.2196 15.2495 14.3975 16.0492C14.5129 16.1276 14.6674 16.0247 14.632 15.8927V15.8927Z" fill="#F7EB2A"/>
<path d="M19.2594 19.1073C19.7589 18.8976 20.937 18.5287 21.7813 19.2604C21.9967 19.4471 22.025 19.7636 21.848 19.9847C21.6669 20.2109 21.3341 20.2588 21.0919 20.0945C20.7553 19.8661 20.1805 19.5568 19.2704 19.2891C19.1813 19.2628 19.1739 19.1432 19.2594 19.1073V19.1073Z" fill="#F7EB2A"/>
<path d="M21.8479 19.9846C21.803 20.0408 21.7487 20.0857 21.6888 20.1194C21.6968 19.9644 21.6349 19.8079 21.5071 19.6971C20.8899 19.1625 20.0947 19.2156 19.5161 19.3649C19.437 19.3392 19.3552 19.314 19.2705 19.289C19.1812 19.2628 19.1739 19.1432 19.2594 19.1073C19.759 18.8976 20.9369 18.5287 21.7813 19.2603C21.9966 19.447 22.025 19.7635 21.8479 19.9846V19.9846Z" fill="#F7EB2A"/>
<path d="M13.3267 19.1073C12.8272 18.8976 11.649 18.5287 10.8047 19.2604C10.5893 19.4471 10.561 19.7636 10.7381 19.9847C10.9192 20.2109 11.2519 20.2588 11.4941 20.0945C11.8308 19.8661 12.4055 19.5568 13.3156 19.2891C13.4048 19.2628 13.4122 19.1432 13.3267 19.1073Z" fill="#F7EB2A"/>
<path d="M16.2939 12.4001C15.8069 12.4001 15.5078 12.857 15.5451 13.3422C15.589 13.9131 15.9302 14.4376 16.1968 14.941C16.2393 15.0215 16.3485 15.0215 16.3911 14.941C16.6576 14.4376 16.9988 13.9131 17.0427 13.3422C17.08 12.857 16.7809 12.4001 16.2939 12.4001V12.4001Z" fill="#F7EB2A"/>
<path d="M17.0416 13.3426C16.9977 13.9134 16.6566 14.4381 16.3901 14.9415C16.3476 15.0219 16.2383 15.0219 16.1957 14.9415C16.1358 14.8285 16.072 14.7141 16.009 14.5986C16.227 14.2 16.4395 13.7851 16.4735 13.3426C16.503 12.9607 16.3238 12.5963 16.0088 12.4585C16.094 12.4213 16.1893 12.4006 16.2928 12.4006C16.7798 12.4006 17.0791 12.8574 17.0416 13.3426Z" fill="#F7EB2A"/>
<path d="M17.3249 21.5314C17.7037 21.9096 18.4755 22.8458 18.0641 23.8672C17.9591 24.1278 17.6626 24.2648 17.3862 24.1824C17.1035 24.0981 16.9399 23.8139 17.0138 23.5369C17.1165 23.152 17.2138 22.5231 17.1528 21.6054C17.1468 21.5154 17.2601 21.4666 17.3249 21.5314Z" fill="#F7EB2A"/>
<path d="M18.0628 23.8671C17.9577 24.1277 17.6613 24.2648 17.385 24.1824C17.3483 24.1714 17.3135 24.1572 17.281 24.1397C17.3907 24.0818 17.48 23.9877 17.5286 23.8671C17.824 23.1338 17.5092 22.4442 17.1681 21.9737C17.1656 21.8564 17.1601 21.7339 17.1516 21.6053C17.1454 21.5155 17.2588 21.4665 17.3236 21.5314C17.7023 21.9096 18.4741 22.8458 18.0628 23.8671V23.8671Z" fill="#F7EB2A"/>
<path d="M13.7633 20.8564C12.9331 21.0336 11.6879 21.5142 10.9036 22.8167C10.6554 23.2289 10.8372 23.7585 11.2908 23.9463C11.7222 24.125 12.2226 23.9195 12.3846 23.4937C12.6201 22.8749 13.0824 22.0019 13.9658 21.2406C14.1438 21.0873 13.996 20.8067 13.7633 20.8564V20.8564Z" fill="#F7EB2A"/>
<path d="M18.9756 16.9273C19.4983 16.5698 20.7625 15.8712 21.9164 16.517C22.2107 16.6817 22.3221 17.0394 22.1734 17.3351C22.0212 17.6376 21.6502 17.7702 21.3305 17.6374C20.8862 17.4528 20.1477 17.2305 19.0335 17.1339C18.9244 17.1245 18.8861 16.9885 18.9756 16.9273V16.9273Z" fill="#F7EB2A"/>
<path d="M22.1732 17.3353C22.1428 17.3959 22.1035 17.4496 22.0576 17.4958C22.0682 17.2689 21.9507 17.0452 21.7356 16.9249C20.7699 16.3846 19.7268 16.7859 19.1061 17.1406C19.0821 17.1381 19.058 17.1358 19.0335 17.1338C18.9243 17.1246 18.8861 16.9886 18.9757 16.9272C19.4983 16.5698 20.7624 15.8711 21.9164 16.5171C22.2107 16.6818 22.3222 17.0395 22.1732 17.3353Z" fill="#F7EB2A"/>
<path d="M15.2638 21.5314C14.8851 21.9096 14.1133 22.8458 14.5247 23.8672C14.6296 24.1278 14.9262 24.2648 15.2026 24.1824C15.4853 24.0981 15.6489 23.8139 15.575 23.5369C15.4723 23.152 15.375 22.5231 15.436 21.6054C15.4419 21.5154 15.3287 21.4666 15.2638 21.5314V21.5314Z" fill="#F7EB2A"/>
<path d="M13.6122 16.9273C13.0894 16.5698 11.8253 15.8712 10.6714 16.517C10.377 16.6817 10.2656 17.0394 10.4144 17.3351C10.5665 17.6376 10.9376 17.7702 11.2572 17.6374C11.7016 17.4528 12.44 17.2305 13.5542 17.1339C13.6634 17.1245 13.7017 16.9885 13.6122 16.9273V16.9273Z" fill="#F7EB2A"/>
<path d="M17.9553 15.8927C18.1619 15.1217 18.8038 13.4202 20.4926 13.1283C20.9234 13.0539 21.3402 13.316 21.4481 13.7259C21.5584 14.1453 21.3078 14.5735 20.8795 14.6997C20.2843 14.875 19.3677 15.2495 18.1899 16.0492C18.0745 16.1276 17.92 16.0247 17.9553 15.8927V15.8927Z" fill="#F7EB2A"/>
<path d="M21.4579 13.769C21.2756 13.625 21.0324 13.5566 20.7848 13.5993C19.3742 13.8429 18.6941 15.0702 18.3878 15.9173C18.3228 15.96 18.2569 16.0039 18.19 16.0494C18.0746 16.1277 17.92 16.0246 17.9553 15.8929C18.1619 15.1218 18.8038 13.4204 20.4927 13.1283C20.9234 13.054 21.3401 13.316 21.4481 13.7261C21.452 13.7403 21.4551 13.7548 21.4579 13.769Z" fill="#F7EB2A"/>
<path d="M16.5818 16.3412L17.0504 17.2591C17.097 17.3505 17.1872 17.4138 17.2915 17.4284L18.3393 17.5756C18.602 17.6125 18.7068 17.9244 18.5168 18.1035L17.7586 18.8179C17.6831 18.889 17.6487 18.9915 17.6665 19.0919L17.8455 20.1007C17.8903 20.3536 17.6158 20.5463 17.3809 20.427L16.4437 19.9507C16.3504 19.9033 16.239 19.9033 16.1457 19.9507L15.2085 20.427C14.9736 20.5464 14.6991 20.3536 14.7439 20.1007L14.9229 19.0919C14.9408 18.9915 14.9063 18.889 14.8309 18.8179L14.0726 18.1035C13.8826 17.9244 13.9875 17.6125 14.2501 17.5756L15.2979 17.4284C15.4022 17.4138 15.4924 17.3505 15.539 17.2591L16.0076 16.3412C16.125 16.1112 16.4643 16.1112 16.5818 16.3412V16.3412Z" fill="#F7EB2A"/>
<path d="M17.7575 18.8177C17.6819 18.8888 17.6475 18.9914 17.6654 19.0917L17.8443 20.1006C17.8892 20.3534 17.6147 20.5461 17.3798 20.4268L17.1706 20.3205C17.2654 20.2514 17.3235 20.1353 17.3002 20.0038L17.1104 18.9338C17.0913 18.8272 17.128 18.7186 17.208 18.6432L18.0121 17.8855C18.1154 17.7884 18.1365 17.6543 18.0952 17.5413L18.3382 17.5754C18.6008 17.6124 18.7056 17.9244 18.5156 18.1034L17.7575 18.8177Z" fill="#F7EB2A"/>
<path d="M6 14.7289V12.9847L9.95346 9.80641L15.9999 5.00024V9.03123L6 14.7289Z" fill="white"/>
<path d="M26 14.7286V12.9844L22.0465 9.80617L16.0001 5V9.03098L26 14.7286Z" fill="#9EC1FF"/>
<path fill-rule="evenodd" clip-rule="evenodd" d="M15.8981 10.6045L8.21582 14.3132V23.5442L15.8981 27.314V10.6045ZM11.2348 14.3525L9.35503 15.1083L9.36485 18.6568L11.2348 18.6813V14.3525ZM11.7454 14.1942L14.4372 13.167V18.6746H11.7454V14.1942ZM11.231 19.1634H9.37565V22.7477L11.231 23.4983V19.1634ZM11.7411 19.1479H14.4924L14.5635 24.6505L11.7411 23.678V19.1479Z" fill="white"/>
</svg>
