<svg width="81" height="79" viewBox="0 0 81 79" fill="none" xmlns="http://www.w3.org/2000/svg">
<path d="M51.5742 10.7414C51.5742 4.81859 46.6063 0 40.5 0C34.3937 0 29.4258 4.81859 29.4258 10.7414C29.4258 16.6642 34.3937 21.4828 40.5 21.4828C46.6063 21.4828 51.5742 16.6642 51.5742 10.7414ZM40.5 18.4138C36.1383 18.4138 32.5898 14.972 32.5898 10.7414C32.5898 6.51082 36.1383 3.06897 40.5 3.06897C44.8617 3.06897 48.4102 6.51082 48.4102 10.7414C48.4102 14.972 44.8617 18.4138 40.5 18.4138Z" fill="black"/>
<path d="M18.668 42.9657C21.5683 42.9657 24.6151 42.4711 27.1766 41.6115C27.9002 45.2901 28.6308 49.0602 29.0527 52.614C21.9589 52.8273 17.1328 53.3215 13.5479 54.194C8.33731 55.4621 5.69532 57.7249 5.69532 60.9192C5.69532 64.6588 9.50201 68.9893 15.8782 72.5033C16.6441 72.9254 17.6072 72.6578 18.0352 71.9272C18.4669 71.1904 18.201 70.2537 17.4413 69.8351C11.5129 66.5679 8.85938 63.0029 8.85938 60.9192C8.85938 56.6333 21.4025 55.8519 30.8374 55.6371C33.8933 57.0226 37.1964 57.7171 40.5 57.7171C43.8036 57.7171 47.1067 57.0226 50.1626 55.6371C59.5975 55.8519 72.1406 56.6333 72.1406 60.9192C72.1406 66.0684 61.2928 71.3371 56.1075 73.029C55.6533 70.9513 54.4804 69.0846 52.7338 67.7352C52.2301 67.346 51.6924 67.012 51.1312 66.7282C53.7628 65.6866 56.3061 64.7555 59.4844 64.7555C60.3581 64.7555 61.0664 64.0685 61.0664 63.221C61.0664 62.3735 60.3581 61.6865 59.4844 61.6865C55.4659 61.6865 52.3777 62.915 49.3913 64.103C47.5952 64.8175 45.8987 65.4923 44.0221 65.9025C44.0148 65.9041 44.0075 65.9057 44.0002 65.9074C43.0839 66.1203 41.755 66.29 40.5 66.29C37.1051 66.29 34.4351 65.2276 31.6082 64.103C28.622 62.915 25.5341 61.6865 21.5156 61.6865C20.6419 61.6865 19.9336 62.3735 19.9336 63.221C19.9336 64.0685 20.6419 64.7555 21.5156 64.7555C24.9105 64.7555 27.5805 65.8178 30.4074 66.9424C33.3937 68.1304 36.4815 69.359 40.5 69.359C42.0536 69.359 43.6508 69.1464 44.8025 68.8782C46.9403 68.4025 49.1124 68.8609 50.7625 70.1357C52.0148 71.1034 52.8106 72.4184 53.0662 73.9116C48.9667 74.9628 44.746 75.4969 40.5 75.4969C37.0842 75.4969 33.6482 75.1469 30.2874 74.4565C29.4323 74.2808 28.593 74.8109 28.4119 75.6398C28.2309 76.4689 28.7772 77.2834 29.6318 77.4589C33.2078 78.1935 36.8643 78.5659 40.5 78.5659C59.5083 78.5659 75.3047 68.399 75.3047 60.9192C75.3047 53.3347 60.2956 52.8649 51.9476 52.614C52.3698 49.0608 53.0994 45.293 53.8224 41.6163C56.3855 42.4822 59.3888 42.9657 62.332 42.9657C70.7712 42.9657 80.5493 38.3771 80.9976 30.4671C81.0277 29.9362 80.7723 29.4279 80.3224 29.1239C79.8726 28.82 79.2928 28.7633 78.7896 28.9746C76.2311 30.0486 72.7402 30.6897 69.4512 30.6897C60.3918 30.6897 55.6959 26.1977 55.1735 25.9779C50.977 23.0672 45.881 21.4828 40.6123 21.4828H40.3877C38.7367 21.4828 37.0801 21.6399 35.4641 21.9493C31.0467 22.7457 26.0733 25.4884 25.2706 26.3726C21.2195 29.3463 16.5583 30.6897 11.5488 30.6897C8.2598 30.6897 4.76889 30.0486 2.21043 28.9746C1.70734 28.7635 1.12737 28.82 0.677597 29.1239C0.227826 29.4279 -0.0276721 29.9362 0.00238653 30.4671C0.452 38.4 10.2661 42.9657 18.668 42.9657V42.9657ZM32.2679 52.8975C31.39 44.8626 28.9509 36.0743 28.1214 28.1675C29.9623 26.9608 32.016 26.0267 34.1719 25.4139V27.6208C34.1719 31.0052 37.0107 33.7587 40.5 33.7587C43.9893 33.7587 46.8281 31.0052 46.8281 27.6208V25.4137C48.9825 26.0263 51.0358 26.96 52.8788 28.1678C52.061 36.0023 49.6127 44.8503 48.7321 52.8974C43.5187 55.2298 37.4815 55.23 32.2679 52.8975V52.8975ZM69.4512 33.7587C72.0473 33.7587 74.772 33.3966 77.1808 32.7547C75.2101 36.8134 69.1253 39.8967 62.332 39.8967C59.5968 39.8967 56.7261 39.4049 54.42 38.5608C54.9664 35.7309 55.4708 32.9471 55.8237 30.2113C59.5201 32.4535 64.4621 33.7587 69.4512 33.7587ZM40.6123 24.5518C41.6319 24.5518 42.6538 24.6216 43.6641 24.7569V27.6208C43.6641 29.313 42.2447 30.6897 40.5 30.6897C38.7553 30.6897 37.3359 29.313 37.3359 27.6208V24.7569C38.3462 24.6216 39.3679 24.5518 40.3877 24.5518H40.6123ZM11.5488 33.7587C16.5387 33.7587 21.4813 32.453 25.1777 30.2107C25.536 32.9774 26.0496 35.8111 26.5797 38.5592C24.2736 39.4046 21.4082 39.8967 18.668 39.8967C11.8747 39.8967 5.78993 36.8134 3.81919 32.7547C6.22799 33.3966 8.95272 33.7587 11.5488 33.7587Z" fill="black"/>
<path d="M23.0977 75.651C23.9714 75.651 24.6797 74.9639 24.6797 74.1162C24.6797 73.2686 23.9714 72.5814 23.0977 72.5814C22.2239 72.5814 21.5156 73.2686 21.5156 74.1162C21.5156 74.9639 22.2239 75.651 23.0977 75.651Z" fill="black"/>
</svg>
