<svg width="50" height="61" viewBox="0 0 50 61" fill="none" xmlns="http://www.w3.org/2000/svg">
<path d="M24.5625 2.19265L2.72438 11.0386C2.50974 11.1268 2.3266 11.2743 2.19779 11.4627C2.06898 11.6512 2.00019 11.8722 2 12.0983V30.8844C1.99846 35.4545 3.22271 39.9463 5.55246 43.9185C7.88222 47.8907 11.2373 51.2067 15.2881 53.5407L24.99 59.1386L34.5612 53.5637C38.578 51.2198 41.9016 47.9082 44.2091 43.9504C46.5167 39.9927 47.7298 35.5234 47.7306 30.9766V11.0386C47.7314 10.8033 47.6578 10.5733 47.5198 10.3798C47.3818 10.1862 47.186 10.0383 46.9587 9.9559L25.4294 2.16961C25.1477 2.07101 24.8381 2.07924 24.5625 2.19265V2.19265Z" stroke="black" stroke-width="3"/>
<path d="M25.0855 14.4019L29.408 22.8908C29.4202 22.9133 29.437 22.9331 29.4574 22.9489C29.4779 22.9648 29.5015 22.9764 29.5267 22.983L39.193 24.3421C39.2234 24.3449 39.2523 24.3565 39.276 24.3752C39.2997 24.394 39.3171 24.4192 39.326 24.4476C39.3349 24.476 39.3349 24.5063 39.326 24.5347C39.3172 24.563 39.2998 24.5882 39.2761 24.607L32.2936 31.2069C32.2811 31.2279 32.2745 31.2518 32.2745 31.276C32.2745 31.3003 32.2811 31.3241 32.2936 31.3451L33.9442 40.6748C33.9496 40.7042 33.9465 40.7345 33.9352 40.7623C33.924 40.79 33.9049 40.8142 33.8803 40.8321C33.8557 40.85 33.8264 40.861 33.7958 40.8637C33.7651 40.8664 33.7343 40.8609 33.7067 40.8476L25.0736 36.4362C25.0495 36.4249 25.0232 36.4191 24.9964 36.4191C24.9697 36.4191 24.9433 36.4249 24.9192 36.4362L16.2861 40.8476C16.2585 40.8609 16.2277 40.8664 16.1971 40.8637C16.1664 40.861 16.1372 40.85 16.1125 40.8321C16.0879 40.8142 16.0689 40.79 16.0576 40.7623C16.0463 40.7345 16.0432 40.7042 16.0486 40.6748L17.6992 31.3451C17.709 31.3233 17.7141 31.2998 17.7141 31.276C17.7141 31.2522 17.709 31.2287 17.6992 31.2069L10.7167 24.607C10.6931 24.5882 10.6757 24.563 10.6668 24.5347C10.6579 24.5063 10.6579 24.476 10.6668 24.4476C10.6757 24.4192 10.6931 24.394 10.7168 24.3752C10.7405 24.3565 10.7694 24.3449 10.7999 24.3421L20.4542 22.983C20.482 22.9787 20.5082 22.9681 20.5309 22.9521C20.5536 22.9361 20.5721 22.9151 20.5849 22.8908L24.8955 14.4019C24.9226 14.3814 24.9561 14.3702 24.9905 14.3702C25.0249 14.3702 25.0584 14.3814 25.0855 14.4019V14.4019Z" stroke="black" stroke-width="3" stroke-linecap="round"/>
</svg>
