<svg width="74" height="74" viewBox="0 0 74 74" fill="none" xmlns="http://www.w3.org/2000/svg">
<path d="M36.5064 4.32471C19 4.32471 4.80566 18.5191 4.80566 36.0255C4.80566 53.5319 19 67.7262 36.5064 67.7262C54.0128 67.7262 68.2072 53.5319 68.2072 36.0255C68.2072 18.5191 54.0128 4.32471 36.5064 4.32471ZM36.5064 65.8337C20.041 65.8337 6.69825 52.4909 6.69825 36.0255C6.69825 19.56 20.041 6.21729 36.5064 6.21729C52.9719 6.21729 66.3146 19.56 66.3146 36.0255C66.3146 52.4909 52.9719 65.8337 36.5064 65.8337Z" fill="white"/>
<circle cx="36.5199" cy="36.0391" r="30.2533" fill="white" stroke="#005BFF"/>
<g clip-path="url(#clip0)">
<path d="M48.6381 19.5497C48.6381 19.4978 48.5862 19.4458 48.5343 19.4458L47.7554 19.3939L47.4439 18.7189C47.4439 18.667 47.392 18.667 47.3401 18.667C47.2881 18.667 47.2362 18.7189 47.2362 18.7189L46.8728 19.3939L46.1458 19.4978C46.0939 19.4978 46.042 19.5497 46.042 19.6016C46.042 19.6535 46.042 19.7054 46.0939 19.7574L46.5612 20.2247L46.4054 20.9516C46.4054 21.0035 46.4055 21.0554 46.4574 21.0554C46.5093 21.0554 46.5612 21.1073 46.6131 21.0554L47.2881 20.692L47.9631 21.0554H48.0151C48.067 21.0554 48.067 21.0554 48.067 21.0554C48.1189 21.0035 48.1189 21.0035 48.1189 20.9516L48.0151 20.2247L48.5862 19.7054C48.6381 19.6535 48.6381 19.6016 48.6381 19.5497Z" fill="#005BFF"/>
<path d="M23.4558 24.8458L22.8327 24.4824L22.7289 23.7555C22.7289 23.7035 22.677 23.6516 22.6251 23.6516C22.5731 23.6516 22.5212 23.6516 22.4693 23.7035L21.9501 24.2747L21.2232 24.1708C21.1712 24.1708 21.1193 24.1708 21.1193 24.2228C21.0674 24.2747 21.0674 24.3266 21.1193 24.3785L21.4308 24.9497L21.0674 25.6247C21.0674 25.6766 21.0674 25.7285 21.0674 25.7804C21.0674 25.8324 21.1712 25.8324 21.1712 25.8324L21.8981 25.6766L22.4174 26.1958C22.4174 26.1958 22.4693 26.2477 22.5212 26.2477H22.5731C22.6251 26.2477 22.677 26.1958 22.677 26.1439L22.7808 25.417L23.4558 25.0535C23.5077 25.0535 23.5077 25.0016 23.5077 24.9497C23.5077 24.8978 23.4558 24.8458 23.4558 24.8458Z" fill="#005BFF"/>
<path d="M53.7265 47.2243L53.1035 46.809L53.0515 46.0301C53.0515 45.9782 52.9996 45.9263 52.9996 45.9263C52.9477 45.9263 52.8958 45.9263 52.8438 45.9263L52.2727 46.3936L51.5458 46.1859C51.4939 46.1859 51.4419 46.1859 51.39 46.2378C51.3381 46.2897 51.3381 46.3416 51.39 46.3936L51.6496 47.0686L51.2343 47.6916C51.1823 47.7436 51.1823 47.7955 51.2343 47.8474C51.2343 47.8993 51.2862 47.8993 51.3381 47.8993L52.1169 47.8474L52.5842 48.4185C52.5842 48.4705 52.6362 48.4705 52.6881 48.4705C52.6881 48.4705 52.6881 48.4705 52.74 48.4705C52.7919 48.4705 52.8438 48.4185 52.8438 48.3666L53.0515 47.6397L53.7785 47.3801C53.8304 47.3801 53.8823 47.3282 53.8823 47.2763C53.7786 47.2763 53.7786 47.2243 53.7265 47.2243Z" fill="#005BFF"/>
<path d="M22.4688 41.6167C22.4688 41.5648 22.4688 41.5129 22.4169 41.5129L21.7938 41.0975L21.7419 40.3187C21.7419 40.2668 21.6899 40.2148 21.6899 40.2148C21.638 40.2148 21.5861 40.2148 21.5342 40.2148L20.963 40.6821L20.2361 40.5264C20.1842 40.5264 20.1323 40.5264 20.0804 40.5783C20.0284 40.6302 20.0284 40.6821 20.0804 40.7341L20.34 41.4091L19.9247 42.0321C19.8728 42.0841 19.8728 42.136 19.9247 42.1879C19.9247 42.2398 19.9766 42.2398 20.0285 42.2398L20.8074 42.1879L21.2747 42.759C21.2747 42.811 21.3266 42.811 21.3785 42.811C21.3785 42.811 21.3785 42.811 21.4304 42.811C21.4824 42.811 21.5343 42.759 21.5343 42.7071L21.742 41.9802L22.4689 41.7206C22.4688 41.7206 22.4688 41.6687 22.4688 41.6167Z" fill="#005BFF"/>
<path d="M26.3629 52.4165C26.259 52.4165 26.259 52.3646 26.2071 52.3646L25.4283 52.2088L25.1168 51.5339C25.1168 51.4819 25.0648 51.4819 25.0129 51.4819C24.961 51.4819 24.9091 51.5339 24.9091 51.5339L24.5456 52.2088L23.8187 52.3127C23.7668 52.3127 23.7148 52.3646 23.7148 52.4165C23.7148 52.4685 23.7148 52.5204 23.7668 52.5723L24.286 53.0915L24.1302 53.8184C24.1302 53.8704 24.1302 53.9223 24.1821 53.9223C24.2341 53.9742 24.286 53.9742 24.3379 53.9223L25.0129 53.5588L25.6879 53.9223H25.7398C25.7917 53.9223 25.7917 53.9223 25.7917 53.9223C25.8437 53.8704 25.8437 53.8704 25.8437 53.8184L25.7398 53.0915L26.311 52.5723C26.3629 52.5204 26.3629 52.4685 26.3629 52.4165Z" fill="#005BFF"/>
<path d="M36.7477 18.667C36.4362 18.667 36.2285 18.8747 36.2285 19.1862V33.7764C36.2285 34.088 36.4881 34.2957 36.7477 34.2957C37.0593 34.2957 37.267 34.088 37.267 33.7764V19.1862C37.267 18.8747 37.0593 18.667 36.7477 18.667Z" fill="#005BFF"/>
<path d="M36.7477 41.6167C36.4362 41.6167 36.2285 41.8244 36.2285 42.1359V53.8185C36.2285 54.13 36.4362 54.3377 36.7477 54.3377C37.0593 54.3377 37.267 54.13 37.267 53.8185V42.1359C37.267 41.8244 37.0593 41.6167 36.7477 41.6167Z" fill="#005BFF"/>
<path d="M35.5018 31.8553L33.3211 25.7803C33.2172 25.5207 32.9057 25.365 32.6461 25.4688C32.3865 25.5727 32.2826 25.8842 32.3865 26.1438L34.5672 32.2187C34.6191 32.4264 34.8268 32.5822 35.0345 32.5822C35.0864 32.5822 35.1384 32.5822 35.1903 32.5303C35.4499 32.4264 35.6057 32.1149 35.5018 31.8553Z" fill="#005BFF"/>
<path d="M32.5938 24.015L31.815 22.1458C31.7111 21.8862 31.3996 21.7304 31.14 21.8343C30.8803 21.9381 30.7246 22.2497 30.8284 22.5093L31.6073 24.4304C31.7111 24.6381 31.8669 24.7419 32.0746 24.7419C32.1265 24.7419 32.1784 24.7419 32.2823 24.69C32.5419 24.5862 32.6976 24.2746 32.5938 24.015Z" fill="#005BFF"/>
<path d="M41.0572 47.7435L38.2534 39.7994C38.1496 39.5398 37.838 39.384 37.5784 39.4878C37.3188 39.5917 37.1631 39.9032 37.2669 40.1628L40.1226 48.107C40.1746 48.3147 40.3823 48.4704 40.5899 48.4704C40.6419 48.4704 40.6938 48.4704 40.7457 48.4185C41.0053 48.3147 41.1611 48.0031 41.0572 47.7435Z" fill="#005BFF"/>
<path d="M36.0208 35.3342L26.6747 23.9632C26.467 23.7555 26.1555 23.7036 25.9478 23.9113C25.7401 24.119 25.6882 24.4305 25.8959 24.6382L35.2419 35.9573C35.3458 36.0611 35.5016 36.165 35.6573 36.165C35.7612 36.165 35.865 36.113 35.9689 36.0611C36.1765 35.8534 36.2285 35.5419 36.0208 35.3342Z" fill="#005BFF"/>
<path d="M47.5991 49.9244L40.33 40.9937C40.1223 40.786 39.8108 40.7341 39.6031 40.9418C39.3954 41.1495 39.3435 41.461 39.5512 41.6687L46.8203 50.5474C46.9242 50.6513 47.0799 50.7551 47.2357 50.7551C47.3395 50.7551 47.4434 50.7032 47.5472 50.6513C47.755 50.4436 47.8069 50.1321 47.5991 49.9244Z" fill="#005BFF"/>
<path d="M32.2308 33.6207L25.0655 29.3111C24.8059 29.1553 24.4944 29.2592 24.3386 29.4669C24.1828 29.7784 24.2348 30.0899 24.4944 30.2457L31.6597 34.5553C31.7635 34.6072 31.8154 34.6072 31.9193 34.6072C32.075 34.6072 32.2827 34.5033 32.3866 34.3476C32.5424 34.088 32.4385 33.7764 32.2308 33.6207Z" fill="#005BFF"/>
<path d="M49.5724 44.2128L37.8898 37.2552C37.6302 37.0994 37.3187 37.2033 37.1629 37.4109C37.0071 37.6706 37.111 37.9821 37.3187 38.1379L48.9493 45.0955C49.0531 45.1474 49.1051 45.1474 49.2089 45.1474C49.3647 45.1474 49.5724 45.0435 49.6762 44.8878C49.8838 44.6801 49.832 44.3686 49.5724 44.2128Z" fill="#005BFF"/>
<path d="M32.0749 35.5417L20.4962 33.2572C20.2366 33.2052 19.925 33.361 19.8731 33.6725C19.8212 33.9841 19.977 34.2437 20.2885 34.2956L31.8672 36.5802C31.9191 36.5802 31.9191 36.5802 31.9711 36.5802C32.2307 36.5802 32.4384 36.4244 32.4903 36.1648C32.5422 35.9052 32.3864 35.5937 32.0749 35.5417Z" fill="#005BFF"/>
<path d="M52.116 39.6438L42.0431 37.6707C41.7315 37.6188 41.4719 37.7746 41.42 38.0861C41.3681 38.3457 41.5238 38.6573 41.8354 38.7092L51.9083 40.6822C51.9603 40.6822 51.9603 40.6822 52.0122 40.6822C52.2718 40.6822 52.4795 40.5265 52.5314 40.2668C52.5834 40.0072 52.4276 39.6957 52.116 39.6438Z" fill="#005BFF"/>
<path d="M46.9243 34.9707L39.8628 36.0091C39.6032 36.061 39.3955 36.3206 39.4475 36.5803C39.4994 36.8399 39.7071 37.0476 39.9667 37.0476H40.0186L47.0801 36.0091C47.3397 35.9053 47.4954 35.6456 47.4954 35.386C47.4435 35.1264 47.1839 34.9187 46.9243 34.9707Z" fill="#005BFF"/>
<path d="M34.6713 37.3072C34.6194 37.0476 34.3597 36.8399 34.1001 36.8918L25.7925 38.086C25.5329 38.1379 25.3252 38.3976 25.3772 38.6572C25.4291 38.9168 25.6368 39.1245 25.8964 39.1245H25.9483L34.2559 37.8783C34.5155 37.8264 34.7232 37.5668 34.6713 37.3072Z" fill="#005BFF"/>
<path d="M50.0912 35.0225C50.0393 34.7629 49.7797 34.5552 49.5201 34.6071L48.897 34.711C48.6374 34.7629 48.4297 35.0225 48.4816 35.2821C48.5336 35.5417 48.7413 35.7494 49.0009 35.7494C49.0009 35.6975 49.0009 35.6975 49.0528 35.6975L49.6759 35.5937C49.9355 35.5417 50.1431 35.2821 50.0912 35.0225Z" fill="#005BFF"/>
<path d="M24.5981 38.813C24.5462 38.5534 24.2865 38.3457 24.0269 38.3977L23.4039 38.4496C23.1442 38.5015 22.9366 38.7611 22.9885 39.0207C23.0404 39.2803 23.2481 39.488 23.5077 39.488H23.5596L24.1827 39.3842C24.4423 39.3323 24.65 39.0727 24.5981 38.813Z" fill="#005BFF"/>
<path d="M51.7534 28.8959C51.5977 28.6363 51.2861 28.5324 51.0265 28.6882L41.317 33.9323C41.0574 34.0881 40.9536 34.3997 41.1093 34.6593C41.2132 34.815 41.3689 34.9189 41.5766 34.9189C41.6805 34.9189 41.7324 34.9189 41.8362 34.867L51.5457 29.6228C51.8054 29.467 51.9092 29.1555 51.7534 28.8959Z" fill="#005BFF"/>
<path d="M32.9059 39.1764C32.7501 38.9168 32.4386 38.8129 32.179 38.9687L22.4694 44.2129C22.2097 44.3686 22.1059 44.6802 22.2617 44.9398C22.3655 45.0955 22.5213 45.1994 22.729 45.1994C22.8328 45.1994 22.8847 45.1994 22.9886 45.1475L32.6981 39.9033C32.9578 39.7475 33.0616 39.436 32.9059 39.1764Z" fill="#005BFF"/>
<path d="M46.6653 25.9882C46.4576 25.7805 46.146 25.8324 45.9384 26.0401L37.475 35.4381C37.2673 35.6458 37.3192 35.9573 37.5269 36.165C37.6308 36.2169 37.7346 36.2688 37.8904 36.2688C38.0461 36.2688 38.15 36.2169 38.2538 36.1131L46.7172 26.7151C46.9249 26.5074 46.8729 26.1959 46.6653 25.9882Z" fill="#005BFF"/>
<path d="M36.3324 37.463C36.1247 37.2553 35.8132 37.3073 35.6055 37.5149L27.0902 46.861C26.8825 47.0687 26.9345 47.3802 27.1421 47.5879C27.246 47.6918 27.3498 47.7437 27.5056 47.7437C27.6614 47.7437 27.7652 47.6918 27.8691 47.5879L36.3324 38.1899C36.5401 37.9823 36.5401 37.6707 36.3324 37.463Z" fill="#005BFF"/>
<path d="M26.7781 48.1589C26.5704 47.8993 26.2589 47.9512 26.0512 48.1589L25.1166 49.1974C24.9089 49.4051 24.9608 49.7166 25.1685 49.9243C25.2724 50.0281 25.3762 50.0801 25.532 50.0801C25.6877 50.0801 25.7916 50.0281 25.8954 49.9243L26.83 48.8858C27.0377 48.6782 26.9858 48.3666 26.7781 48.1589Z" fill="#005BFF"/>
<path d="M49.0017 23.392C48.7941 23.1843 48.4825 23.2362 48.2748 23.4439L47.3402 24.4304C47.1325 24.6381 47.1845 24.9497 47.3921 25.1573C47.496 25.2612 47.5998 25.3131 47.7556 25.3131C47.9114 25.3131 48.0152 25.2612 48.1191 25.1573L49.0537 24.1189C49.2614 23.9112 49.2093 23.5997 49.0017 23.392Z" fill="#005BFF"/>
<path d="M43.2374 21.2632C42.9778 21.1593 42.6663 21.2632 42.5624 21.5228L39.0836 30.0381C38.9279 30.3496 39.0836 30.6092 39.3432 30.7131C39.3952 30.765 39.499 30.765 39.5509 30.765C39.7586 30.765 39.9663 30.6612 40.0182 30.4535L43.497 21.9382C43.6009 21.6786 43.497 21.367 43.2374 21.2632Z" fill="#005BFF"/>
<path d="M35.8133 40.0071C35.5536 39.9032 35.2421 40.0071 35.1383 40.2667L30.8806 50.5473C30.7768 50.807 30.8806 51.1185 31.1402 51.2223C31.1921 51.2743 31.296 51.2743 31.3479 51.2743C31.5556 51.2743 31.7633 51.1704 31.8152 50.9627L36.0729 40.6821C36.2286 40.4225 36.0729 40.1628 35.8133 40.0071Z" fill="#005BFF"/>
</g>
<defs>
<clipPath id="clip0">
<rect width="35.6708" height="35.6707" fill="white" transform="translate(19.0371 18.667)"/>
</clipPath>
</defs>
</svg>
