<svg width="66" height="74" viewBox="0 0 66 74" fill="none" xmlns="http://www.w3.org/2000/svg">
<path d="M26.3157 26.3804C27.2651 26.3804 28.0348 25.6364 28.0348 24.7186C28.0348 23.8009 27.2651 23.0569 26.3157 23.0569C25.3663 23.0569 24.5967 23.8009 24.5967 24.7186C24.5967 25.6364 25.3663 26.3804 26.3157 26.3804Z" fill="#F7EB2A"/>
<path d="M14.5452 55.6345C15.4946 55.6345 16.2643 54.8905 16.2643 53.9728C16.2643 53.055 15.4946 52.311 14.5452 52.311C13.5958 52.311 12.8262 53.055 12.8262 53.9728C12.8262 54.8905 13.5958 55.6345 14.5452 55.6345Z" fill="#F7EB2A"/>
<path d="M53.4905 55.6345C54.4399 55.6345 55.2096 54.8905 55.2096 53.9728C55.2096 53.055 54.4399 52.311 53.4905 52.311C52.5411 52.311 51.7715 53.055 51.7715 53.9728C51.7715 54.8905 52.5411 55.6345 53.4905 55.6345Z" fill="#F7EB2A"/>
<path d="M55.2087 53.9721C55.2087 54.8896 54.4384 55.6342 53.4892 55.6342C52.805 55.6342 52.2145 55.2479 51.9385 54.6886C52.1097 54.7446 52.2938 54.7751 52.4855 54.7751C53.4355 54.7751 54.2049 54.0314 54.2049 53.1138C54.2049 52.8576 54.1444 52.6146 54.0371 52.3972C54.7179 52.618 55.2087 53.2398 55.2087 53.9721Z" fill="#F7EB2A"/>
<path d="M28.0349 24.7184C28.0349 25.636 27.2646 26.3805 26.3154 26.3805C25.6312 26.3805 25.0407 25.9942 24.7646 25.435C24.9359 25.491 25.1199 25.5215 25.3116 25.5215C26.2617 25.5215 27.0311 24.7777 27.0311 23.8601C27.0311 23.604 26.9706 23.361 26.8632 23.1436C27.5441 23.3642 28.0349 23.9861 28.0349 24.7184Z" fill="#F7EB2A"/>
<path d="M16.2634 53.9721C16.2634 54.8896 15.4931 55.6342 14.5439 55.6342C13.8597 55.6342 13.2692 55.2479 12.9932 54.6886C13.1644 54.7446 13.3484 54.7751 13.5402 54.7751C14.4902 54.7751 15.2596 54.0314 15.2596 53.1138C15.2596 52.8576 15.1991 52.6146 15.0917 52.3972C15.7726 52.618 16.2634 53.2398 16.2634 53.9721Z" fill="#F7EB2A"/>
<path d="M42.322 52.3254C45.0615 52.9101 49.1707 54.4961 51.7589 58.7943C52.578 60.1547 51.9781 61.9021 50.4812 62.522C49.0575 63.1117 47.4063 62.4336 46.8716 61.0285C46.0945 58.9862 44.569 56.1054 41.6535 53.5933C41.0662 53.0873 41.5538 52.1614 42.322 52.3254Z" fill="#F7EB2A"/>
<path d="M50.4809 62.5215C50.3786 62.5643 50.2747 62.5998 50.1707 62.6294C50.6887 61.8353 50.7535 60.7917 50.2235 59.9104C47.9238 56.0919 44.4235 54.4132 41.7497 53.676C41.7181 53.6488 41.6858 53.6208 41.6534 53.5928C41.0663 53.0863 41.5537 52.1605 42.3222 52.3244C45.0617 52.9091 49.1703 54.4956 51.759 58.7934C52.5779 60.1542 51.978 61.9013 50.4809 62.5215Z" fill="#F7EB2A"/>
<path d="M28.4829 35.9453C27.8013 33.4011 25.6829 27.7862 20.1101 26.8229C18.6884 26.5772 17.3129 27.442 16.9569 28.795C16.5927 30.179 17.42 31.592 18.833 32.0083C20.7972 32.5869 23.8221 33.8227 27.7089 36.4617C28.0897 36.7204 28.5996 36.3809 28.4829 35.9453Z" fill="#F7EB2A"/>
<path d="M43.7562 46.554C45.4045 45.8622 49.2923 44.6448 52.0785 47.0593C52.7893 47.6753 52.8828 48.7198 52.2985 49.4495C51.7008 50.1959 50.6028 50.3542 49.8035 49.8119C48.6926 49.0581 46.796 48.0376 43.7926 47.1539C43.4984 47.0673 43.474 46.6724 43.7562 46.554Z" fill="#F7EB2A"/>
<path d="M52.2983 49.4493C52.15 49.6347 51.9711 49.7829 51.7734 49.8942C51.7998 49.3827 51.5953 48.8663 51.1735 48.5005C49.137 46.7362 46.5126 46.9117 44.6032 47.4042C44.3424 47.3193 44.0723 47.2361 43.7929 47.1538C43.498 47.0673 43.4742 46.6727 43.7562 46.5541C45.405 45.8622 49.2921 44.6449 52.0784 47.059C52.7891 47.6752 52.8828 48.7196 52.2983 49.4493Z" fill="#F7EB2A"/>
<path d="M24.182 46.554C22.5336 45.8622 18.6458 44.6448 15.8596 47.0593C15.1488 47.6753 15.0553 48.7198 15.6396 49.4495C16.2373 50.1959 17.3353 50.3542 18.1346 49.8119C19.2455 49.0581 21.1421 48.0376 24.1455 47.1539C24.4397 47.0673 24.4641 46.6724 24.182 46.554Z" fill="#F7EB2A"/>
<path d="M33.9687 24.4204C32.3617 24.4204 31.3745 25.928 31.4976 27.5293C31.6424 29.4132 32.7685 31.144 33.648 32.8053C33.7886 33.0707 34.1487 33.0707 34.2893 32.8053C35.1688 31.144 36.2949 29.4132 36.4397 27.5293C36.5629 25.928 35.5758 24.4204 33.9687 24.4204Z" fill="#F7EB2A"/>
<path d="M36.4386 27.5297C36.2937 29.4134 35.1681 31.1448 34.2887 32.8061C34.1482 33.0713 33.7877 33.0713 33.6471 32.8061C33.4495 32.433 33.239 32.0557 33.0311 31.6744C33.7503 30.359 34.4515 28.99 34.564 27.5297C34.6611 26.2695 34.0698 25.0669 33.0303 24.6122C33.3115 24.4895 33.6259 24.4211 33.9676 24.4211C35.5746 24.4211 36.5622 25.9285 36.4386 27.5297Z" fill="#F7EB2A"/>
<path d="M37.3704 54.553C38.6202 55.801 41.1672 58.8905 39.8096 62.2612C39.4632 63.1211 38.4847 63.5733 37.5725 63.3013C36.6394 63.0231 36.0997 62.0852 36.3437 61.1713C36.6826 59.9009 37.0035 57.8257 36.8023 54.7971C36.7826 54.5003 37.1564 54.3392 37.3704 54.553Z" fill="#F7EB2A"/>
<path d="M39.8075 62.261C39.4607 63.121 38.4826 63.5731 37.5709 63.3013C37.4498 63.2651 37.3349 63.2181 37.2275 63.1605C37.5896 62.9694 37.8844 62.6589 38.0447 62.261C39.0195 59.8411 37.9808 57.5653 36.8552 56.0127C36.8466 55.6256 36.8288 55.2212 36.8006 54.797C36.7802 54.5004 37.1542 54.339 37.368 54.5532C38.618 55.801 41.1648 58.8906 39.8075 62.261Z" fill="#F7EB2A"/>
<path d="M25.6158 52.3254C22.8762 52.9101 18.7671 54.4961 16.1789 58.7943C15.3597 60.1547 15.9597 61.9021 17.4565 62.522C18.8802 63.1117 20.5314 62.4336 21.0661 61.0285C21.8432 58.9862 23.3688 56.1054 26.2842 53.5933C26.8714 53.0873 26.3839 52.1614 25.6158 52.3254Z" fill="#F7EB2A"/>
<path d="M42.8167 39.3597C44.5417 38.1802 48.7135 35.8747 52.5213 38.0058C53.4927 38.5495 53.8603 39.7299 53.3694 40.7057C52.8673 41.7039 51.6428 42.1414 50.5879 41.7031C49.1217 41.094 46.6848 40.3604 43.008 40.0418C42.6477 40.0105 42.5213 39.5617 42.8167 39.3597Z" fill="#F7EB2A"/>
<path d="M53.369 40.7062C53.2684 40.9063 53.1389 41.0835 52.9873 41.2358C53.0222 40.4871 52.6345 39.7491 51.9248 39.3521C48.738 37.5689 45.2956 38.8933 43.2473 40.0637C43.168 40.0555 43.0887 40.048 43.0079 40.0415C42.6475 40.011 42.5213 39.5621 42.817 39.3595C44.5416 38.18 48.7133 35.8745 52.5213 38.0062C53.4926 38.5498 53.8606 39.7302 53.369 40.7062Z" fill="#F7EB2A"/>
<path d="M30.569 54.553C29.3192 55.801 26.7722 58.8905 28.1298 62.2612C28.4762 63.1211 29.4547 63.5733 30.3669 63.3013C31.3 63.0231 31.8397 62.0852 31.5958 61.1713C31.2568 59.9009 30.936 57.8257 31.1371 54.7971C31.1568 54.5003 30.783 54.3392 30.569 54.553Z" fill="#F7EB2A"/>
<path d="M25.1222 39.3597C23.3972 38.1802 19.2254 35.8747 15.4175 38.0058C14.4461 38.5495 14.0785 39.7299 14.5695 40.7057C15.0716 41.7039 16.296 42.1414 17.351 41.7031C18.8172 41.094 21.2541 40.3604 24.9309 40.0418C25.2912 40.0105 25.4176 39.5617 25.1222 39.3597Z" fill="#F7EB2A"/>
<path d="M39.4545 35.9452C40.136 33.4011 42.2545 27.7861 47.8273 26.8229C49.249 26.5772 50.6245 27.442 50.9805 28.795C51.3447 30.179 50.5174 31.592 49.1043 32.0083C47.1402 32.5869 44.1153 33.8227 40.2285 36.4617C39.8476 36.7203 39.3378 36.3808 39.4545 35.9452Z" fill="#F7EB2A"/>
<path d="M51.0129 28.937C50.4113 28.4617 49.6086 28.236 48.7915 28.3768C44.1367 29.1807 41.8923 33.2308 40.8817 36.0263C40.667 36.1671 40.4497 36.3121 40.229 36.462C39.8482 36.7206 39.3377 36.3804 39.4545 35.9455C40.1361 33.4012 42.2544 27.7863 47.8278 26.8226C49.2491 26.5772 50.6242 27.442 50.9804 28.7953C50.9933 28.8422 51.0035 28.89 51.0129 28.937Z" fill="#F7EB2A"/>
<path d="M34.9159 37.4251L36.4623 40.4541C36.6162 40.7555 36.9137 40.9644 37.2578 41.0128L40.7158 41.4985C41.5824 41.6202 41.9285 42.6496 41.3014 43.2405L38.7992 45.5982C38.5502 45.8328 38.4366 46.1709 38.4953 46.5022L39.086 49.8314C39.234 50.6657 38.3282 51.3019 37.5531 50.9081L34.4602 49.3362C34.1524 49.1798 33.7847 49.1798 33.4769 49.3362L30.384 50.9081C29.6088 51.302 28.703 50.6658 28.851 49.8314L29.4417 46.5022C29.5005 46.1709 29.3868 45.8328 29.1378 45.5982L26.6356 43.2405C26.0086 42.6496 26.3546 41.6202 27.2212 41.4985L30.6792 41.0128C31.0233 40.9644 31.3208 40.7555 31.4747 40.4541L33.0212 37.4251C33.4086 36.6659 34.5283 36.6659 34.9159 37.4251Z" fill="#F7EB2A"/>
<path d="M38.8003 45.5977C38.5506 45.8325 38.4373 46.171 38.4961 46.5021L39.0865 49.8314C39.2348 50.6657 38.329 51.3016 37.5536 50.9079L36.8634 50.557C37.1762 50.3289 37.3679 49.9459 37.2912 49.5118L36.6649 45.9808C36.6018 45.6291 36.7228 45.2708 36.9869 45.022L39.6403 42.5214C39.9811 42.201 40.051 41.7586 39.9147 41.3855L40.7165 41.4983C41.5831 41.6202 41.929 42.6498 41.3019 43.2404L38.8003 45.5977Z" fill="#F7EB2A"/>
<path d="M0 32.1057V26.3499L13.0464 15.8616L32.9998 0.0012207V13.3035L0 32.1057Z" fill="white"/>
<path d="M66 32.1044V26.3487L52.9536 15.8604L33.0002 0V13.3022L66 32.1044Z" fill="#9EC1FF"/>
<path fill-rule="evenodd" clip-rule="evenodd" d="M32.666 18.4939L7.31445 30.7326V61.1948L32.666 73.6352V18.4939ZM17.2754 30.8635L11.0721 33.3578L11.1045 45.0678L17.2754 45.1487V30.8635ZM18.9581 30.3407L27.841 26.9512V45.126H18.9581V30.3407ZM17.261 46.7392H11.1382V58.5672L17.261 61.0442V46.7392ZM18.9442 46.6888H28.0234L28.2582 64.8471L18.9442 61.6381V46.6888Z" fill="white"/>
</svg>
