<svg width="88" height="88" viewBox="0 0 88 88" fill="none" xmlns="http://www.w3.org/2000/svg">
<circle cx="43.9944" cy="44.0056" r="42.9944" fill="#005BFF" stroke="white" stroke-width="2"/>
<path d="M37.3669 33.6544C38.3085 33.6544 39.0718 32.9166 39.0718 32.0064C39.0718 31.0962 38.3085 30.3584 37.3669 30.3584C36.4254 30.3584 35.6621 31.0962 35.6621 32.0064C35.6621 32.9166 36.4254 33.6544 37.3669 33.6544Z" fill="#F7EB2A"/>
<path d="M25.6931 62.6666C26.6346 62.6666 27.3979 61.9288 27.3979 61.0186C27.3979 60.1084 26.6346 59.3706 25.6931 59.3706C24.7516 59.3706 23.9883 60.1084 23.9883 61.0186C23.9883 61.9288 24.7516 62.6666 25.6931 62.6666Z" fill="#F7EB2A"/>
<path d="M64.3152 62.6666C65.2567 62.6666 66.02 61.9288 66.02 61.0186C66.02 60.1084 65.2567 59.3706 64.3152 59.3706C63.3736 59.3706 62.6104 60.1084 62.6104 61.0186C62.6104 61.9288 63.3736 62.6666 64.3152 62.6666Z" fill="#F7EB2A"/>
<path d="M66.0205 61.0179C66.0205 61.9279 65.2566 62.6663 64.3153 62.6663C63.6367 62.6663 63.0511 62.2831 62.7773 61.7285C62.9472 61.7841 63.1297 61.8143 63.3198 61.8143C64.262 61.8143 65.025 61.0767 65.025 60.1667C65.025 59.9127 64.965 59.6717 64.8586 59.4561C65.5338 59.675 66.0205 60.2917 66.0205 61.0179Z" fill="#F7EB2A"/>
<path d="M39.0713 32.0061C39.0713 32.9161 38.3074 33.6545 37.3661 33.6545C36.6875 33.6545 36.1019 33.2714 35.8281 32.7168C35.998 32.7723 36.1805 32.8026 36.3706 32.8026C37.3128 32.8026 38.0758 32.065 38.0758 31.155C38.0758 30.901 38.0158 30.6599 37.9093 30.4443C38.5846 30.6632 39.0713 31.28 39.0713 32.0061Z" fill="#F7EB2A"/>
<path d="M27.3975 61.0179C27.3975 61.9279 26.6336 62.6663 25.6922 62.6663C25.0136 62.6663 24.4281 62.2831 24.1543 61.7285C24.3241 61.7841 24.5066 61.8143 24.6968 61.8143C25.6389 61.8143 26.402 61.0767 26.402 60.1667C26.402 59.9127 26.342 59.6717 26.2355 59.4561C26.9107 59.675 27.3975 60.2917 27.3975 61.0179Z" fill="#F7EB2A"/>
<path d="M53.241 59.3845C55.9579 59.9645 60.0331 61.5373 62.5999 65.7999C63.4123 67.1491 62.8172 68.882 61.3328 69.4968C59.9208 70.0816 58.2833 69.4091 57.753 68.0156C56.9823 65.9903 55.4694 63.1333 52.5781 60.642C51.9957 60.1401 52.4792 59.2219 53.241 59.3845Z" fill="#F7EB2A"/>
<path d="M61.3324 69.4968C61.2311 69.5393 61.128 69.5744 61.0248 69.6038C61.5386 68.8163 61.6029 67.7813 61.0772 66.9073C58.7965 63.1204 55.3252 61.4556 52.6735 60.7245C52.6422 60.6975 52.6101 60.6697 52.578 60.642C51.9958 60.1396 52.4792 59.2215 53.2413 59.384C55.9581 59.9639 60.0328 61.5373 62.6 65.7996C63.4121 67.1491 62.8172 68.8817 61.3324 69.4968Z" fill="#F7EB2A"/>
<path d="M39.5147 43.1402C38.8388 40.6171 36.7379 35.0486 31.2112 34.0933C29.8012 33.8496 28.4372 34.7073 28.0841 36.0491C27.7229 37.4216 28.5433 38.823 29.9447 39.2358C31.8926 39.8096 34.8925 41.0352 38.7471 43.6524C39.1249 43.9089 39.6305 43.5722 39.5147 43.1402Z" fill="#F7EB2A"/>
<path d="M54.6627 53.6611C56.2974 52.9751 60.1531 51.7676 62.9162 54.1622C63.6212 54.7731 63.7139 55.8089 63.1344 56.5326C62.5416 57.2728 61.4527 57.4298 60.66 56.892C59.5583 56.1445 57.6774 55.1324 54.6988 54.256C54.4071 54.1702 54.3829 53.7785 54.6627 53.6611Z" fill="#F7EB2A"/>
<path d="M63.1342 56.5325C62.9871 56.7163 62.8097 56.8633 62.6136 56.9736C62.6398 56.4664 62.437 55.9542 62.0187 55.5915C59.999 53.8417 57.3964 54.0158 55.5027 54.5042C55.2441 54.4201 54.9763 54.3376 54.6991 54.2559C54.4067 54.1701 54.3831 53.7788 54.6628 53.6612C56.2979 52.975 60.1529 51.7678 62.9161 54.1619C63.6209 54.773 63.7138 55.8087 63.1342 56.5325Z" fill="#F7EB2A"/>
<path d="M35.2497 53.6611C33.615 52.9751 29.7594 51.7676 26.9962 54.1622C26.2913 54.7731 26.1986 55.8089 26.7781 56.5326C27.3708 57.2728 28.4597 57.4298 29.2524 56.892C30.3541 56.1445 32.235 55.1324 35.2136 54.256C35.5054 54.1702 35.5296 53.7785 35.2497 53.6611Z" fill="#F7EB2A"/>
<path d="M44.955 31.7104C43.3613 31.7104 42.3823 33.2055 42.5044 34.7936C42.648 36.6619 43.7647 38.3784 44.637 40.026C44.7764 40.2892 45.1336 40.2892 45.273 40.026C46.1452 38.3784 47.262 36.6619 47.4056 34.7936C47.5277 33.2055 46.5488 31.7104 44.955 31.7104Z" fill="#F7EB2A"/>
<path d="M47.4055 34.7938C47.2618 36.6619 46.1455 38.3789 45.2734 40.0265C45.1341 40.2895 44.7765 40.2895 44.6371 40.0265C44.4411 39.6565 44.2323 39.2823 44.0262 38.9042C44.7394 37.5997 45.4348 36.242 45.5464 34.7938C45.6427 33.544 45.0563 32.3513 44.0254 31.9004C44.3043 31.7787 44.616 31.7109 44.9549 31.7109C46.5487 31.7109 47.528 33.2059 47.4055 34.7938Z" fill="#F7EB2A"/>
<path d="M48.3292 61.5937C49.5687 62.8314 52.0946 65.8953 50.7482 69.2381C50.4047 70.0909 49.4343 70.5393 48.5296 70.2696C47.6043 69.9938 47.069 69.0636 47.311 68.1572C47.6471 66.8973 47.9653 64.8393 47.7658 61.8358C47.7463 61.5414 48.117 61.3817 48.3292 61.5937Z" fill="#F7EB2A"/>
<path d="M50.7455 69.2379C50.4016 70.0908 49.4315 70.5392 48.5274 70.2696C48.4073 70.2337 48.2933 70.1871 48.1868 70.13C48.546 69.9405 48.8383 69.6325 48.9973 69.2379C49.964 66.838 48.9339 64.5811 47.8176 63.0413C47.8091 62.6574 47.7914 62.2563 47.7635 61.8357C47.7432 61.5416 48.1142 61.3815 48.3262 61.5939C49.5658 62.8313 52.0916 65.8954 50.7455 69.2379Z" fill="#F7EB2A"/>
<path d="M36.6723 59.3845C33.9555 59.9645 29.8803 61.5373 27.3135 65.7999C26.5011 67.1491 27.0961 68.882 28.5806 69.4968C29.9925 70.0816 31.63 69.4091 32.1603 68.0156C32.931 65.9903 34.4439 63.1333 37.3352 60.642C37.9176 60.1401 37.4341 59.2219 36.6723 59.3845Z" fill="#F7EB2A"/>
<path d="M53.7313 46.5259C55.442 45.3561 59.5794 43.0697 63.3557 45.1832C64.3191 45.7223 64.6836 46.893 64.1967 47.8608C63.6988 48.8506 62.4844 49.2846 61.4383 48.8499C59.9841 48.2458 57.5674 47.5183 53.921 47.2023C53.5638 47.1713 53.4384 46.7262 53.7313 46.5259Z" fill="#F7EB2A"/>
<path d="M64.1963 47.8612C64.0966 48.0597 63.9682 48.2354 63.8178 48.3864C63.8524 47.6439 63.4679 46.912 62.7641 46.5183C59.6037 44.7499 56.1897 46.0633 54.1584 47.224C54.0798 47.2159 54.0011 47.2085 53.9209 47.202C53.5635 47.1717 53.4384 46.7266 53.7316 46.5256C55.442 45.3559 59.5792 43.0695 63.3556 45.1835C64.3189 45.7227 64.6839 46.8933 64.1963 47.8612Z" fill="#F7EB2A"/>
<path d="M41.5847 61.5937C40.3452 62.8314 37.8193 65.8953 39.1657 69.2381C39.5092 70.0909 40.4796 70.5393 41.3842 70.2696C42.3096 69.9938 42.8448 69.0636 42.603 68.1572C42.2668 66.8973 41.9486 64.8393 42.1481 61.8358C42.1676 61.5414 41.7969 61.3817 41.5847 61.5937Z" fill="#F7EB2A"/>
<path d="M36.1825 46.5259C34.4718 45.3561 30.3345 43.0697 26.5581 45.1832C25.5948 45.7223 25.2302 46.893 25.7171 47.8608C26.2151 48.8506 27.4294 49.2846 28.4756 48.8499C29.9297 48.2458 32.3464 47.5183 35.9928 47.2023C36.3501 47.1713 36.4754 46.7262 36.1825 46.5259Z" fill="#F7EB2A"/>
<path d="M50.3967 43.1401C51.0726 40.6171 53.1736 35.0485 58.7003 34.0933C60.1102 33.8496 61.4743 34.7073 61.8274 36.0491C62.1886 37.4216 61.3682 38.823 59.9667 39.2358C58.0188 39.8096 55.019 41.0352 51.1643 43.6524C50.7866 43.9088 50.281 43.5721 50.3967 43.1401Z" fill="#F7EB2A"/>
<path d="M61.8595 36.1896C61.2629 35.7184 60.4669 35.4945 59.6565 35.6342C55.0402 36.4314 52.8143 40.4479 51.8121 43.2203C51.5992 43.36 51.3837 43.5038 51.1648 43.6524C50.7871 43.9089 50.281 43.5715 50.3967 43.1402C51.0727 40.6169 53.1735 35.0485 58.7007 34.0927C60.1103 33.8494 61.4741 34.707 61.8273 36.0491C61.8401 36.0957 61.8502 36.1431 61.8595 36.1896Z" fill="#F7EB2A"/>
<path d="M45.8955 44.6076L47.4292 47.6116C47.5818 47.9105 47.8768 48.1177 48.2181 48.1656L51.6475 48.6473C52.5069 48.768 52.8501 49.7889 52.2282 50.3749L49.7467 52.7132C49.4998 52.9458 49.3871 53.2811 49.4454 53.6096L50.0312 56.9113C50.1779 57.7387 49.2796 58.3697 48.5109 57.9791L45.4436 56.4202C45.1384 56.2651 44.7737 56.2651 44.4684 56.4202L41.4011 57.9791C40.6324 58.3698 39.734 57.7388 39.8808 56.9113L40.4666 53.6096C40.5249 53.2811 40.4122 52.9458 40.1653 52.7132L37.6838 50.3749C37.0619 49.7889 37.4051 48.768 38.2645 48.6473L41.6939 48.1656C42.0352 48.1177 42.3302 47.9105 42.4828 47.6116L44.0165 44.6076C44.4007 43.8548 45.5111 43.8548 45.8955 44.6076Z" fill="#F7EB2A"/>
<path d="M49.7463 52.7126C49.4987 52.9454 49.3864 53.2811 49.4446 53.6094L50.0302 56.9111C50.1772 57.7386 49.279 58.3692 48.51 57.9788L47.8255 57.6308C48.1357 57.4046 48.3258 57.0247 48.2497 56.5943L47.6286 53.0924C47.566 52.7437 47.6861 52.3883 47.948 52.1416L50.5794 49.6616C50.9174 49.3439 50.9867 48.9052 50.8516 48.5352L51.6467 48.647C52.5061 48.7679 52.8492 49.789 52.2273 50.3747L49.7463 52.7126Z" fill="#F7EB2A"/>
<path d="M11.2676 39.3327V33.6246L24.2061 23.223L43.9943 7.4939V20.6861L11.2676 39.3327Z" fill="white"/>
<path d="M76.7217 39.3315V33.6233L63.7832 23.2218L43.9949 7.49268V20.6849L76.7217 39.3315Z" fill="#9EC1FF"/>
<path fill-rule="evenodd" clip-rule="evenodd" d="M43.6633 25.8335L18.5215 37.9709V68.1811L43.6633 80.5186V25.8335ZM28.4 38.101L22.2481 40.5746L22.2802 52.1877L28.4 52.268V38.101ZM30.0692 37.5823L38.8786 34.2209V52.2453H30.0692V37.5823ZM28.3859 53.8452H22.3138V65.5754L28.3859 68.0319V53.8452ZM30.0554 53.7954H39.0595L39.2923 71.8034L30.0554 68.621V53.7954Z" fill="white"/>
</svg>
