<svg width="56" height="56" viewBox="0 0 56 56" fill="none" xmlns="http://www.w3.org/2000/svg">
<g clip-path="url(#clip0)">
<path d="M15.5864 30.7579C19.6045 32.0141 23.7899 32.6539 27.9998 32.6554C32.2097 32.6539 36.395 32.0141 40.4131 30.7579C40.7316 30.6589 40.973 30.3975 41.0464 30.0722C41.1199 29.7469 41.0142 29.4071 40.7692 29.1808C40.5242 28.9546 40.1772 28.8762 39.8587 28.9752C32.1395 31.3926 23.8657 31.3926 16.1464 28.9752C15.6542 28.8221 15.131 29.0971 14.9779 29.5894C14.8248 30.0816 15.0998 30.6048 15.592 30.7579H15.5864Z" fill="black"/>
<path d="M15.7232 25.1887C19.7853 25.8169 23.8898 26.1308 28.0002 26.1277C32.1106 26.1308 36.2151 25.8169 40.2773 25.1887C40.6099 25.1409 40.8912 24.9179 41.0136 24.6049C41.1361 24.292 41.0808 23.9373 40.8689 23.6765C40.657 23.4156 40.3212 23.2888 39.9898 23.3445C32.0435 24.5671 23.9569 24.5671 16.0106 23.3445C15.5047 23.2717 15.0343 23.6195 14.9556 24.1246C14.8769 24.6296 15.2191 25.104 15.7232 25.1887Z" fill="black"/>
<path d="M39.7305 35.56C32.3279 39.1767 23.6709 39.1767 16.2684 35.56C15.965 35.3896 15.592 35.4021 15.3007 35.5925C15.0094 35.7829 14.8482 36.1195 14.8825 36.4657C14.9168 36.812 15.1409 37.1105 15.4638 37.24C23.3742 41.1042 32.6246 41.1042 40.535 37.24C40.858 37.1105 41.0821 36.812 41.1163 36.4657C41.1506 36.1195 40.9894 35.7829 40.6982 35.5925C40.4069 35.4021 40.0339 35.3896 39.7305 35.56Z" fill="black"/>
<path d="M52.2667 16.8H47.4283C47.0342 15.6852 45.9823 14.9382 44.8 14.9333H43.3907C39.9244 14.888 36.6631 13.2836 34.5119 10.5653C32.9182 8.6058 30.5267 7.46826 28.0009 7.46826C25.4752 7.46826 23.0837 8.6058 21.49 10.5653C19.3383 13.284 16.0762 14.8885 12.6093 14.9333H11.2C10.0177 14.9382 8.96584 15.6852 8.57173 16.8H3.73333C1.67147 16.8 0 18.4714 0 20.5333V25.2C0 30.1056 4.39227 34.6201 9.72347 35.3556C12.3555 42.5497 18.8446 47.625 26.4609 48.4465C27.4843 48.5623 28.5175 48.5623 29.5409 48.4465C37.1566 47.6244 43.6448 42.5492 46.2765 35.3556C51.6077 34.6201 56 30.1056 56 25.2V20.5333C56 18.4714 54.3285 16.8 52.2667 16.8ZM11.2 16.8H12.6093C16.6385 16.755 20.4328 14.8968 22.9385 11.7413C24.1774 10.2169 26.0371 9.33189 28.0014 9.33189C29.9657 9.33189 31.8254 10.2169 33.0643 11.7413C35.569 14.8965 39.3624 16.7547 43.3907 16.8H44.8C45.3155 16.8 45.7333 17.2178 45.7333 17.7333V18.6666L42.9333 18.662H42.9147C38.4753 18.5426 34.325 16.4332 31.612 12.9173C30.7266 11.8291 29.3977 11.1981 27.9947 11.1997C26.5918 11.2013 25.2644 11.8354 24.3815 12.9257C21.6696 16.4366 17.5229 18.5421 13.0881 18.6601H13.0667L10.2667 18.6666V17.7333C10.2667 17.2178 10.6845 16.8 11.2 16.8ZM1.86667 25.2V20.5333C1.86667 19.5024 2.7024 18.6666 3.73333 18.6666H8.4V28C8.40295 29.8028 8.63663 31.5979 9.09533 33.3414C5.3872 32.4482 1.86667 29.2805 1.86667 25.2ZM29.3459 46.5901C28.4515 46.6909 27.5485 46.6909 26.6541 46.5901C19.5625 45.816 13.5706 40.9837 11.312 34.2169V34.2076C10.6232 32.2103 10.27 30.1127 10.2667 28V20.5333L13.0667 20.5286C18.0743 20.431 22.7679 18.069 25.83 14.1054C26.3588 13.451 27.1545 13.07 27.9959 13.0686C28.8372 13.0671 29.6343 13.4454 30.1653 14.098C33.2317 18.0484 37.9124 20.4099 42.9119 20.5286H42.9333L45.7333 20.5333V28C45.7307 30.1119 45.3784 32.2088 44.6908 34.2057V34.215C42.4323 40.9834 36.4391 45.8167 29.3459 46.5901ZM54.1333 25.2C54.1333 29.2805 50.6128 32.4482 46.9047 33.3433C47.3635 31.5992 47.5972 29.8034 47.6 28V18.6666H52.2667C53.2976 18.6666 54.1333 19.5024 54.1333 20.5333V25.2Z" fill="black"/>
</g>
<defs>
<clipPath id="clip0">
<rect width="56" height="56" fill="white"/>
</clipPath>
</defs>
</svg>
