<svg width="81" height="81" viewBox="0 0 81 81" fill="none" xmlns="http://www.w3.org/2000/svg">
<g filter="url(#filter0_d)">
<circle cx="40.5" cy="39.5" r="36.5" fill="white"/>
</g>
<g clip-path="url(#clip0)">
<path d="M28.5864 44.7579C32.6045 46.0141 36.7899 46.6539 40.9998 46.6554C45.2097 46.6539 49.395 46.0141 53.4131 44.7579C53.7316 44.6589 53.973 44.3975 54.0464 44.0722C54.1199 43.7469 54.0142 43.4071 53.7692 43.1808C53.5242 42.9546 53.1772 42.8762 52.8587 42.9752C45.1395 45.3926 36.8657 45.3926 29.1464 42.9752C28.6542 42.8221 28.131 43.0971 27.9779 43.5894C27.8248 44.0816 28.0998 44.6048 28.592 44.7579H28.5864Z" fill="black"/>
<path d="M28.7232 39.1887C32.7853 39.8169 36.8898 40.1308 41.0002 40.1277C45.1106 40.1308 49.2151 39.8169 53.2773 39.1887C53.6099 39.1409 53.8912 38.9179 54.0136 38.6049C54.1361 38.292 54.0808 37.9373 53.8689 37.6765C53.657 37.4156 53.3212 37.2888 52.9898 37.3445C45.0435 38.5671 36.9569 38.5671 29.0106 37.3445C28.5047 37.2717 28.0343 37.6195 27.9556 38.1246C27.8769 38.6296 28.2191 39.104 28.7232 39.1887Z" fill="black"/>
<path d="M52.7305 49.56C45.3279 53.1767 36.6709 53.1767 29.2684 49.56C28.965 49.3896 28.592 49.4021 28.3007 49.5925C28.0094 49.7829 27.8482 50.1195 27.8825 50.4657C27.9168 50.812 28.1409 51.1105 28.4638 51.24C36.3742 55.1042 45.6246 55.1042 53.535 51.24C53.858 51.1105 54.0821 50.812 54.1163 50.4657C54.1506 50.1195 53.9894 49.7829 53.6982 49.5925C53.4069 49.4021 53.0339 49.3896 52.7305 49.56Z" fill="black"/>
<path d="M65.2667 30.8H60.4283C60.0342 29.6852 58.9823 28.9382 57.8 28.9333H56.3907C52.9244 28.888 49.6631 27.2836 47.5119 24.5653C45.9182 22.6058 43.5267 21.4683 41.0009 21.4683C38.4752 21.4683 36.0837 22.6058 34.49 24.5653C32.3383 27.284 29.0762 28.8885 25.6093 28.9333H24.2C23.0177 28.9382 21.9658 29.6852 21.5717 30.8H16.7333C14.6715 30.8 13 32.4714 13 34.5333V39.2C13 44.1056 17.3923 48.6201 22.7235 49.3556C25.3555 56.5497 31.8446 61.625 39.4609 62.4465C40.4843 62.5623 41.5175 62.5623 42.5409 62.4465C50.1566 61.6244 56.6448 56.5492 59.2765 49.3556C64.6077 48.6201 69 44.1056 69 39.2V34.5333C69 32.4714 67.3285 30.8 65.2667 30.8ZM24.2 30.8H25.6093C29.6385 30.755 33.4328 28.8968 35.9385 25.7413C37.1774 24.2169 39.0371 23.3319 41.0014 23.3319C42.9657 23.3319 44.8254 24.2169 46.0643 25.7413C48.569 28.8965 52.3624 30.7547 56.3907 30.8H57.8C58.3155 30.8 58.7333 31.2178 58.7333 31.7333V32.6666L55.9333 32.662H55.9147C51.4753 32.5426 47.325 30.4332 44.612 26.9173C43.7266 25.8291 42.3977 25.1981 40.9947 25.1997C39.5918 25.2013 38.2644 25.8354 37.3815 26.9257C34.6696 30.4366 30.5229 32.5421 26.0881 32.6601H26.0667L23.2667 32.6666V31.7333C23.2667 31.2178 23.6845 30.8 24.2 30.8ZM14.8667 39.2V34.5333C14.8667 33.5024 15.7024 32.6666 16.7333 32.6666H21.4V42C21.403 43.8028 21.6366 45.5979 22.0953 47.3414C18.3872 46.4482 14.8667 43.2805 14.8667 39.2ZM42.3459 60.5901C41.4515 60.6909 40.5485 60.6909 39.6541 60.5901C32.5625 59.816 26.5706 54.9837 24.312 48.2169V48.2076C23.6232 46.2103 23.27 44.1127 23.2667 42V34.5333L26.0667 34.5286C31.0743 34.431 35.7679 32.069 38.83 28.1054C39.3588 27.451 40.1545 27.07 40.9959 27.0686C41.8372 27.0671 42.6343 27.4454 43.1653 28.098C46.2317 32.0484 50.9124 34.4099 55.9119 34.5286H55.9333L58.7333 34.5333V42C58.7307 44.1119 58.3784 46.2088 57.6908 48.2057V48.215C55.4323 54.9834 49.4391 59.8167 42.3459 60.5901ZM67.1333 39.2C67.1333 43.2805 63.6128 46.4482 59.9047 47.3433C60.3635 45.5992 60.5972 43.8034 60.6 42V32.6666H65.2667C66.2976 32.6666 67.1333 33.5024 67.1333 34.5333V39.2Z" fill="black"/>
</g>
<defs>
<filter id="filter0_d" x="0" y="0" width="81" height="81" filterUnits="userSpaceOnUse" color-interpolation-filters="sRGB">
<feFlood flood-opacity="0" result="BackgroundImageFix"/>
<feColorMatrix in="SourceAlpha" type="matrix" values="0 0 0 0 0 0 0 0 0 0 0 0 0 0 0 0 0 0 127 0"/>
<feOffset dy="1"/>
<feGaussianBlur stdDeviation="2"/>
<feColorMatrix type="matrix" values="0 0 0 0 0 0 0 0 0 0 0 0 0 0 0 0 0 0 0.25 0"/>
<feBlend mode="normal" in2="BackgroundImageFix" result="effect1_dropShadow"/>
<feBlend mode="normal" in="SourceGraphic" in2="effect1_dropShadow" result="shape"/>
</filter>
<clipPath id="clip0">
<rect width="56" height="56" fill="white" transform="translate(13 14)"/>
</clipPath>
</defs>
</svg>
