<svg width="24" height="24" viewBox="0 0 24 24" fill="none" xmlns="http://www.w3.org/2000/svg">
<path d="M11.9579 23.9158C18.5636 23.9158 23.9158 18.5636 23.9158 11.9579C23.9158 5.35215 18.5636 0 11.9579 0C5.35215 0 0 5.35215 0 11.9579C0 18.5636 5.35215 23.9158 11.9579 23.9158ZM5.47173 11.6988L17.0011 7.25346C17.5363 7.06014 18.0036 7.384 17.8302 8.19315L17.8312 8.19215L15.8681 17.4406C15.7226 18.0963 15.333 18.2557 14.7879 17.9468L11.7985 15.7436L10.3565 17.1327C10.1971 17.2921 10.0626 17.4266 9.75366 17.4266L9.96591 14.3844L15.5064 9.37897C15.7476 9.16672 15.4526 9.04714 15.1347 9.2584L8.28782 13.5692L5.33621 12.6485C4.69547 12.4452 4.68152 12.0077 5.47173 11.6988Z" fill="#005BFF"/>
</svg>
