<svg width="24" height="25" viewBox="0 0 24 25" fill="none" xmlns="http://www.w3.org/2000/svg">
<g clip-path="url(#clip0)">
<path d="M12.0355 0.7544C5.43521 0.755801 0.0857676 6.10753 0.0871681 12.7078C0.0876349 14.9932 0.743483 17.2306 1.97685 19.1547L0.117512 23.9789C0.0184976 24.2354 0.146222 24.5237 0.402791 24.6227C0.460164 24.6448 0.521086 24.6562 0.582567 24.6561C0.639614 24.6564 0.69624 24.6466 0.749879 24.6272L5.7294 22.8495C11.3319 26.3388 18.7023 24.6257 22.1916 19.0231C25.6808 13.4206 23.9678 6.05025 18.3652 2.56098C16.4661 1.37813 14.2729 0.752206 12.0355 0.7544Z" fill="#005BFF"/>
<path d="M17.7326 14.747C17.7326 14.747 16.5127 14.1494 15.7488 13.7511C14.8844 13.3059 13.8686 14.1395 13.3905 14.6136C12.6465 14.3278 11.967 13.8964 11.3918 13.3448C10.84 12.7696 10.4087 12.0901 10.123 11.346C10.597 10.867 11.4286 9.85214 10.9854 8.98771C10.592 8.22286 9.98954 7.00387 9.98954 7.00289C9.905 6.83511 9.73325 6.72919 9.54536 6.729H8.54947C7.09913 6.9795 6.04461 8.24498 6.05973 9.71671C6.05973 11.2803 7.93102 14.2839 9.19285 15.5467C10.4547 16.8095 13.4583 18.6798 15.0228 18.6798C16.4946 18.695 17.7601 17.6404 18.0106 16.1901V15.1942C18.0107 15.0043 17.9029 14.8309 17.7326 14.747Z" fill="white"/>
</g>
<defs>
<clipPath id="clip0">
<rect width="23.9158" height="23.9158" fill="white" transform="translate(0.0839844 0.747314)"/>
</clipPath>
</defs>
</svg>
