<svg width="79" height="79" viewBox="0 0 79 79" fill="none" xmlns="http://www.w3.org/2000/svg">
<path d="M39.5 19.4414C38.6484 19.4414 37.957 20.1327 37.957 20.9844C37.957 21.836 38.6484 22.5273 39.5 22.5273C40.3516 22.5273 41.043 21.836 41.043 20.9844C41.043 20.1327 40.3516 19.4414 39.5 19.4414Z" fill="black"/>
<path d="M13.8867 47.2148C14.7384 47.2148 15.4297 46.5235 15.4297 45.6719C15.4297 44.8202 14.7384 44.1289 13.8867 44.1289C13.0351 44.1289 12.3438 44.8202 12.3438 45.6719C12.3438 46.5235 13.0351 47.2148 13.8867 47.2148Z" fill="black"/>
<path d="M51.8438 4.01172C37.9528 4.01172 26.5517 13.589 25.6699 25.6525C12.4408 26.3161 0 35.8553 0 48.7578C0 54.1498 2.13364 59.3742 6.01758 63.5137C6.78605 66.6816 5.85303 70.0393 3.53798 72.3544C3.09679 72.7956 2.96479 73.4592 3.20347 74.036C3.44215 74.6122 4.00449 74.9883 4.62891 74.9883C9.02938 74.9883 13.2701 73.2627 16.4212 70.222C19.4908 71.2683 23.4959 71.9023 27.1562 71.9023C41.0454 71.9023 52.4453 62.3275 53.3295 50.2664C56.5601 50.123 59.9202 49.5263 62.5788 48.6204C65.7299 51.6611 69.9706 53.3867 74.3711 53.3867C74.9955 53.3867 75.5579 53.0106 75.7965 52.4344C76.0352 51.8576 75.9032 51.194 75.462 50.7528C73.147 48.4378 72.214 45.08 72.9824 41.9121C76.8664 37.7726 79 32.5482 79 27.1562C79 13.7499 65.6009 4.01172 51.8438 4.01172ZM27.1562 68.8164C23.5146 68.8164 19.3649 68.1016 16.5851 66.9956C15.9896 66.7581 15.3091 66.9142 14.8758 67.3874C13.0128 69.424 10.5904 70.844 7.95111 71.4967C9.40548 68.7103 9.77676 65.4255 8.89196 62.313C8.82204 62.0677 8.69246 61.8435 8.51466 61.6609C5.01405 58.0554 3.08594 53.4729 3.08594 48.7578C3.08594 37.8847 14.1085 28.6992 27.1562 28.6992C39.4771 28.6992 50.3008 37.2669 50.3008 48.7578C50.3008 59.8184 39.9183 68.8164 27.1562 68.8164ZM70.4853 40.0593C70.3075 40.2426 70.178 40.4668 70.108 40.7115C69.2232 43.8239 69.5945 47.1088 71.0489 49.8951C68.4096 49.243 65.9872 47.8224 64.1242 45.7858C63.6909 45.3133 63.0104 45.1565 62.4149 45.394C60.0058 46.3523 56.5691 47.0159 53.3246 47.1763C52.8738 41.3413 49.9633 35.8571 44.9872 31.7852H65.1133C65.9655 31.7852 66.6562 31.0944 66.6562 30.2422C66.6562 29.3899 65.9655 28.6992 65.1133 28.6992H40.2468C36.7444 26.9164 32.8116 25.8767 28.7637 25.6585C29.6503 15.2953 39.6633 7.09766 51.8438 7.09766C64.8915 7.09766 75.9141 16.2831 75.9141 27.1562C75.9141 31.8713 73.986 36.4538 70.4853 40.0593Z" fill="black"/>
<path d="M39.5 44.1289H20.0586C19.2063 44.1289 18.5156 44.8196 18.5156 45.6719C18.5156 46.5241 19.2063 47.2148 20.0586 47.2148H39.5C40.3522 47.2148 41.043 46.5241 41.043 45.6719C41.043 44.8196 40.3522 44.1289 39.5 44.1289Z" fill="black"/>
<path d="M39.5 53.3867H13.8867C13.0345 53.3867 12.3438 54.0774 12.3438 54.9297C12.3438 55.7819 13.0345 56.4727 13.8867 56.4727H39.5C40.3522 56.4727 41.043 55.7819 41.043 54.9297C41.043 54.0774 40.3522 53.3867 39.5 53.3867Z" fill="black"/>
<path d="M65.1133 19.4414H45.6719C44.8196 19.4414 44.1289 20.1321 44.1289 20.9844C44.1289 21.8366 44.8196 22.5273 45.6719 22.5273H65.1133C65.9655 22.5273 66.6562 21.8366 66.6562 20.9844C66.6562 20.1321 65.9655 19.4414 65.1133 19.4414Z" fill="black"/>
</svg>
