<svg width="106" height="70" viewBox="0 0 106 70" fill="none" xmlns="http://www.w3.org/2000/svg">
<path d="M106 18.1C105.998 16.4908 105.524 14.8588 104.478 13.5135L96.0789 2.7669C94.6721 0.980635 92.5316 0.0711465 90.3925 0.067627C89.1195 0.067627 87.8233 0.393908 86.678 1.10817L78.4887 6.20321C77.6274 6.75246 76.1509 7.12946 74.7246 7.11973C73.6166 7.1245 72.5458 6.90276 71.8388 6.5535L63.8193 2.66898C62.5257 2.04623 61.0837 1.79096 59.6337 1.78847C57.5512 1.7982 55.4421 2.30998 53.7474 3.48447L52.8116 4.14097C52.0636 3.76769 50.9206 3.19897 49.6258 2.55469C48.0731 1.79344 46.2473 1.48641 44.403 1.48041C42.7371 1.48517 41.0715 1.74189 39.609 2.35967L34.1467 4.69043C33.2577 5.07592 31.8437 5.32767 30.4392 5.32146C29.0347 5.32746 27.6231 5.07571 26.7342 4.69043L21.2669 2.35843C20.2696 1.93319 19.2036 1.75141 18.1471 1.75017C16.9306 1.75141 15.7213 1.99116 14.5974 2.44642C13.4748 2.90416 12.4329 3.57991 11.6031 4.50721L1.64901 15.655C0.545741 16.8871 -0.00227028 18.4385 7.06846e-06 19.9658C-0.00227028 21.7871 0.776995 23.6141 2.28004 24.8946L11.5654 32.8165L7.1606 37.4115C5.94636 38.6788 5.34183 40.3218 5.34183 41.9463C5.33955 43.6748 6.02607 45.4201 7.38585 46.7051L8.27939 47.5542C9.12139 48.3529 10.1332 48.861 11.1919 49.132C10.6609 50.1087 10.3706 51.1797 10.3729 52.2528C10.3706 53.9825 11.0571 55.7265 12.4144 57.013L12.4122 57.0118L13.3084 57.8645C14.5841 59.0738 16.2379 59.6761 17.8672 59.675C18.743 59.6763 19.6197 59.5003 20.4437 59.1558C20.7329 60.329 21.3302 61.4443 22.2697 62.3356L23.166 63.1884C24.4417 64.3976 26.0928 64.9999 27.7248 64.9988C29.0005 65.0001 30.2821 64.6241 31.3853 63.8943C31.7081 64.9326 32.2611 65.9166 33.1029 66.7164L33.9991 67.5691C35.2721 68.7784 36.9259 69.3807 38.5556 69.3796C40.2912 69.3809 42.0439 68.6991 43.3385 67.3476L47.2315 63.2823L52.5205 68.1774C53.7865 69.3517 55.4115 69.9359 57.0156 69.9324C58.7778 69.9361 60.5556 69.2301 61.8529 67.8414L62.6971 66.9369C63.4259 66.1541 63.9016 65.2276 64.1776 64.2606L66.2264 66.1516C67.4947 67.3211 69.1174 67.9029 70.7192 67.9016C72.4837 67.9029 74.2665 67.1969 75.565 65.8071L76.4045 64.9036C77.374 63.8678 77.9197 62.5849 78.0883 61.2746C78.629 61.4131 79.177 61.507 79.7298 61.507C81.4943 61.507 83.2721 60.8023 84.5719 59.4138L85.4139 58.5103C86.5906 57.249 87.1761 55.6315 87.1736 54.0367C87.1736 53.5417 87.1026 53.0492 86.9929 52.5625C88.4564 52.3685 89.8754 51.7157 90.9544 50.557L91.7987 49.6524C92.9755 48.3912 93.5585 46.7737 93.5585 45.1777C93.5607 43.4216 92.8527 41.6496 91.4554 40.3586L89.8764 38.9001L104.128 23.1429C105.407 21.7243 105.998 19.8983 106 18.1ZM12.8388 45.7791C12.0838 45.7768 11.3453 45.5069 10.7683 44.9601L9.87333 44.111C9.2541 43.5256 8.94831 42.7465 8.94583 41.9465C8.94831 41.1963 9.21683 40.4638 9.76981 39.8868L18.7914 30.4724C19.3792 29.8592 20.1634 29.5522 20.9679 29.5512C21.7207 29.5524 22.4567 29.8234 23.0384 30.3714L23.9297 31.2217C23.9297 31.2217 24.8525 32.5862 24.8547 33.3872C24.8525 33.987 24.6717 34.5712 24.3212 35.0772C24.2912 35.1073 14.5841 45.2238 14.5841 45.2238C14.0686 45.5886 13.4591 45.7764 12.8388 45.7791ZM20.0439 55.1694C19.4574 55.7802 18.6744 56.0859 17.8699 56.0884C17.1149 56.0872 16.3787 55.8162 15.7994 55.2694L14.9032 54.4177L14.9009 54.4164C14.2866 53.8334 13.9781 53.0519 13.9781 52.2519C13.9781 51.5016 14.2491 50.7692 14.7994 50.1922C14.7994 50.1922 26.825 37.674 26.9263 37.5533C27.501 37.0006 28.2416 36.7151 29.0063 36.7138C29.7614 36.7151 30.4976 36.9848 31.0768 37.5328L31.9731 38.3856C32.5896 38.9686 32.8958 39.7491 32.8981 40.5501C32.8956 41.3004 32.6248 42.0339 32.0741 42.6109L20.0439 55.1694ZM29.9001 60.4918C29.3148 61.104 28.532 61.4102 27.7273 61.4124C26.9722 61.4112 26.236 61.1402 25.6568 60.5922L24.758 59.7405C24.1415 59.1562 23.833 58.3759 23.833 57.5759C23.833 56.9064 24.0608 56.2569 24.4966 55.7162L32.8714 46.9751C33.4364 46.4656 34.1444 46.1971 34.8781 46.1971C35.6332 46.1983 36.3694 46.4681 36.9487 47.0161L37.8474 47.8689C38.4617 48.4519 38.7701 49.2324 38.7724 50.0321C38.7699 50.7839 38.4966 51.5174 37.9484 52.0929L29.9001 60.4918ZM45.8129 59.5692L40.7311 64.873C40.1456 65.4847 39.3616 65.7909 38.5571 65.7932C37.8021 65.792 37.0658 65.521 36.4866 64.973L35.5903 64.1212C34.9761 63.5382 34.6676 62.7567 34.6653 61.9567C34.6676 61.205 34.9386 60.4715 35.4893 59.897L40.5688 54.5935C41.1566 53.9817 41.9408 53.6744 42.7453 53.6732C43.4981 53.6744 44.2366 53.9442 44.8159 54.4935L45.7146 55.3452C46.3288 55.9282 46.6348 56.7087 46.6373 57.5084C46.6344 58.26 46.3634 58.9935 45.8129 59.5692ZM89.9598 45.1824C89.9588 45.919 89.6948 46.6405 89.1601 47.2138L88.3181 48.1173C87.7303 48.7461 86.9328 49.0641 86.1163 49.0653C85.3756 49.0641 84.6503 48.8038 84.0748 48.2718L69.8859 35.1499L67.4324 37.7769L82.6198 51.8466C83.2522 52.432 83.57 53.227 83.5748 54.0388C83.57 54.7783 83.3086 55.4986 82.775 56.0721L81.9355 56.9756C81.3478 57.6043 80.5503 57.9211 79.7337 57.9235C78.993 57.9213 78.2655 57.6598 77.6945 57.131L63.5019 44.0094L61.0508 46.6364L73.6462 58.284C74.2532 58.8657 74.5642 59.6402 74.5642 60.435C74.5642 61.1723 74.3027 61.8936 73.7692 62.4658L72.9272 63.3693C72.3417 63.9981 71.5419 64.3161 70.7231 64.3183C69.9799 64.3161 69.2549 64.0546 68.6816 63.5258L56.1115 51.9205H56.1092L56.1069 51.9182L53.6606 54.55L53.6631 54.5523L53.7101 54.5968L60.0059 60.4073C60.5637 60.9806 60.8527 61.7153 60.855 62.4753C60.8527 63.2088 60.5935 63.9266 60.06 64.4991L59.218 65.4036C58.6302 66.0323 57.8352 66.3479 57.021 66.3503C56.2802 66.3481 55.555 66.0878 54.9817 65.5568L49.5001 60.481C49.9771 59.5452 50.2434 58.5297 50.2434 57.5107C50.2457 55.7822 49.5591 54.0394 48.2019 52.7519L47.3031 51.8991C46.0301 50.6909 44.3786 50.0876 42.7491 50.0899C42.6226 50.0899 42.495 50.1189 42.371 50.1261C42.371 50.0961 42.3781 50.0646 42.3781 50.0346C42.3803 48.3061 40.3365 45.2733 40.3365 45.2733L39.4403 44.423C38.4875 43.5196 37.3251 42.956 36.116 42.7295C36.3653 42.0238 36.5062 41.289 36.5062 40.553C36.5062 38.8245 35.822 37.0803 34.4647 35.7942L33.5685 34.9414C32.2927 33.7321 30.6417 33.1287 29.0119 33.1299C28.8217 33.1299 28.6339 33.1684 28.4447 33.1854C28.3929 31.5256 27.7244 29.8671 26.4236 28.6313V28.6301L25.5299 27.781C24.2541 26.5705 22.6031 25.967 20.9733 25.9683C19.2351 25.967 17.485 26.6488 16.1905 28.0003L14.0609 30.2226L4.62736 22.1765C3.94934 21.596 3.61084 20.7937 3.60836 19.97C3.61063 19.2797 3.84561 18.604 4.34663 18.0429L14.3005 6.89531C14.6955 6.45206 15.2797 6.05104 15.964 5.77258C16.6482 5.49433 17.425 5.34154 18.1513 5.34258C18.7837 5.34258 19.3773 5.45707 19.852 5.66182L25.3168 7.99361C26.8573 8.64286 28.6459 8.9091 30.4433 8.9149C32.2428 8.9089 34.0291 8.64266 35.5698 7.99361L41.0322 5.66285C41.8741 5.29558 43.1447 5.06785 44.4082 5.07261C45.8055 5.06412 47.205 5.35334 48.0168 5.76761C48.5323 6.02412 49.0213 6.26759 49.4753 6.49512L43.9045 10.4111C42.1145 11.6699 41.1497 13.6717 41.1522 15.6917C41.15 17.0287 41.5737 18.3897 42.4362 19.5447L42.434 19.5422L43.1698 20.531C44.567 22.3885 46.7458 23.3435 48.9236 23.3483C50.1533 23.3483 51.4061 23.0375 52.5226 22.3678L55.8541 20.367C56.5336 19.9515 57.5597 19.689 58.6207 19.6938C59.8674 19.6865 61.1237 20.0553 61.879 20.6103L71.0958 27.2181C73.147 28.6876 76.4881 31.4134 78.3396 33.1287L89.0077 42.9922C89.6394 43.5779 89.9574 44.3694 89.9598 45.1824ZM101.453 20.7451L87.2413 36.46L80.7888 30.4954C78.7677 28.6297 75.4349 25.9089 73.1994 24.3031L63.9851 17.6953C62.4228 16.5885 60.5101 16.1101 58.619 16.103C57.0098 16.1078 55.3885 16.4585 53.989 17.2918L50.6599 19.2926C50.1492 19.5996 49.5471 19.7563 48.9217 19.7575C47.8037 19.7613 46.6849 19.2395 46.0611 18.3903L45.3276 17.4028L45.3251 17.4003C44.9349 16.874 44.7531 16.2838 44.7504 15.6863C44.7552 14.7828 45.1719 13.906 45.9792 13.3363L55.8295 6.41521C56.6812 5.79867 58.1965 5.36618 59.6358 5.37694C60.6355 5.37218 61.5906 5.57321 62.2446 5.89618L70.2639 9.78071C71.6312 10.4372 73.1742 10.7057 74.7265 10.7094C76.721 10.6997 78.7373 10.2662 80.3985 9.24594L88.5903 4.14987C89.1131 3.82359 89.7406 3.65486 90.3948 3.65486C91.5006 3.65258 92.6086 4.1536 93.2361 4.97137L101.635 15.7179C102.119 16.3335 102.4 17.2017 102.4 18.1017C102.401 19.1081 102.046 20.0983 101.453 20.7451Z" fill="black"/>
</svg>
