<svg width="32" height="32" viewBox="0 0 32 32" fill="none" xmlns="http://www.w3.org/2000/svg">
<g clip-path="url(#clip0)">
<path d="M15.9914 0.00904089C7.16009 0.0109148 0.00238604 7.17168 0.00425993 16.003C0.00488456 19.061 0.882428 22.0547 2.5327 24.6292L0.0448609 31.084C-0.0876232 31.4273 0.0832757 31.813 0.426573 31.9455C0.50334 31.9751 0.584854 31.9903 0.667118 31.9902C0.743448 31.9906 0.819215 31.9775 0.890985 31.9515L7.55373 29.5729C15.05 34.2417 24.9118 31.9495 29.5806 24.4531C34.2493 16.9568 31.9572 7.09504 24.4608 2.4263C21.9197 0.84361 18.9852 0.00610513 15.9914 0.00904089Z" fill="white"/>
<path d="M23.615 18.7319C23.615 18.7319 21.9827 17.9324 20.9606 17.3994C19.8039 16.8038 18.4448 17.9191 17.8051 18.5534C16.8097 18.171 15.9004 17.5939 15.1307 16.8557C14.3925 16.0861 13.8153 15.1769 13.433 14.1813C14.0673 13.5404 15.18 12.1825 14.587 11.0259C14.0607 10.0025 13.2545 8.37144 13.2545 8.37013C13.1414 8.14564 12.9116 8.00391 12.6602 8.00366H11.3277C9.38705 8.33884 7.97607 10.0321 7.99631 12.0013C7.99631 14.0934 10.5001 18.1124 12.1885 19.802C13.8769 21.4916 17.8958 23.9942 19.9892 23.9942C21.9584 24.0144 23.6517 22.6034 23.9868 20.6629V19.3303C23.987 19.0762 23.8429 18.8442 23.615 18.7319Z" fill="#309EEB"/>
</g>
<defs>
<clipPath id="clip0">
<rect width="32" height="32" fill="white"/>
</clipPath>
</defs>
</svg>
