<svg width="75" height="75" viewBox="0 0 75 75" fill="none" xmlns="http://www.w3.org/2000/svg">
<path d="M33.7383 51.5625L22.7227 40.5468C22.7227 40.5468 37.2188 6.3398 66.5273 8.20309C66.5273 8.20309 70.6055 35.2968 33.7383 51.5625Z" stroke="black" stroke-width="3"/>
<path d="M65.625 19.7109C62.9578 19.2837 60.4955 18.0197 58.5937 16.1016C56.6383 14.1516 55.3607 11.6252 54.9492 8.89453" stroke="black" stroke-width="3"/>
<path d="M49.5938 31.5469C53.1405 31.5469 56.0156 28.6717 56.0156 25.125C56.0156 21.5783 53.1405 18.7031 49.5938 18.7031C46.047 18.7031 43.1719 21.5783 43.1719 25.125C43.1719 28.6717 46.047 31.5469 49.5938 31.5469Z" stroke="black" stroke-width="3"/>
<path d="M35.8711 50.5781L35.1562 56.0625C35.1505 56.1112 35.1576 56.1605 35.1768 56.2057C35.196 56.2508 35.2266 56.2901 35.2657 56.3197C35.3048 56.3493 35.3509 56.3682 35.3996 56.3745C35.4482 56.3808 35.4976 56.3742 35.543 56.3555L44.918 52.2891C45.302 52.1128 45.6396 51.8494 45.904 51.5199C46.1685 51.1903 46.3525 50.8037 46.4414 50.3906L47.8711 43.5586" stroke="black" stroke-width="3"/>
<path d="M23.4375 39.0117L17.9414 39.7148C17.8941 39.7209 17.8461 39.7143 17.8022 39.6957C17.7584 39.6772 17.7202 39.6473 17.6916 39.6092C17.663 39.5711 17.645 39.5261 17.6395 39.4788C17.634 39.4315 17.6411 39.3835 17.6601 39.3398L21.7148 30.0234C21.8902 29.6221 22.1596 29.2689 22.5002 28.9935C22.8408 28.7182 23.2427 28.5288 23.6718 28.4414L30.4922 27.0117" stroke="black" stroke-width="3"/>
<path d="M25.1836 42.9844C17.5078 45.4453 17.1211 57.5977 17.1211 57.5977C17.1211 57.5977 28.9336 57.7266 31.875 49.6758" stroke="black" stroke-width="3"/>
<path d="M12.75 61.8984L8.34375 66.3164" stroke="black" stroke-width="3" stroke-linecap="round"/>
<path d="M12.4219 53.4727L8.68359 57.1992" stroke="black" stroke-width="3" stroke-linecap="round"/>
<path d="M21.0234 62.2383L17.2969 65.9766" stroke="black" stroke-width="3" stroke-linecap="round"/>
</svg>
