<svg width="78" height="71" viewBox="0 0 78 71" fill="none" xmlns="http://www.w3.org/2000/svg">
<path d="M73.7959 46.2035L67.606 43.4886L65.8349 40.7218C72.7404 36.5024 76.9266 29.1704 76.9266 21.2677V9.90651C76.9087 9.26669 76.533 8.67874 75.9427 8.38477L60.0385 0.205398C59.5018 -0.0712826 58.8578 -0.0712825 58.339 0.222691L42.9358 8.38477C42.3633 8.69603 42.0234 9.26669 42.0413 9.90651V21.4925C42.0234 24.7781 42.7211 28.0464 44.1165 31.0553H31.2179C28.445 31.0553 25.8151 32.3176 24.1156 34.4446L17.0849 43.3503L5.27752 46.4629C2.16468 47.2757 0.0178899 50.0079 0 53.1205V57.4783C0.0178899 61.2999 3.23807 64.3953 7.19174 64.4299H8.05046C9.37431 69.0643 14.3477 71.7792 19.1422 70.4823C22.1835 69.6695 24.5628 67.3696 25.4037 64.4299H51.7018C53.0257 69.0643 57.9991 71.7792 62.7936 70.4823C65.8349 69.6695 68.2142 67.3696 69.055 64.4299H70.8083C74.7619 64.4126 77.9821 61.3172 78 57.4783V52.4807C77.9821 49.7658 76.3362 47.3276 73.7959 46.2035ZM45.6193 10.9268L59.2693 3.6812L73.3486 10.9441V21.2677C73.3307 29.1704 68.4289 36.2776 60.8972 39.3384C60.8972 39.3384 60.8794 39.3384 60.8615 39.3384L59.144 40.0474L57.7486 39.4422C50.378 36.3122 45.6193 29.2741 45.6193 21.4752V10.9268V10.9268ZM16.7271 67.2831C13.7216 67.2831 11.3064 64.9314 11.3064 62.0435C11.3064 59.1384 13.7394 56.8039 16.7271 56.8039C19.7326 56.8039 22.1477 59.1556 22.1477 62.0435C22.1477 64.9314 19.7147 67.2658 16.7271 67.2831ZM60.3784 67.2831C57.3729 67.2831 54.9578 64.9314 54.9578 62.0435C54.9578 59.1556 57.3908 56.8039 60.3784 56.8039C63.3839 56.8039 65.7991 59.1556 65.7991 62.0435C65.817 64.9314 63.3839 67.2658 60.3784 67.2831ZM74.4399 57.461H74.422C74.4041 59.3804 72.794 60.9368 70.8083 60.9541H69.3055C68.6615 56.1813 64.1532 52.8266 59.2156 53.4491C55.1725 53.9506 51.9702 57.046 51.4514 60.9541H25.6541C25.0101 56.1813 20.5018 52.8266 15.5642 53.4491C11.5211 53.9506 8.31881 57.046 7.8 60.9541H7.19174C5.20596 60.9368 3.59587 59.3804 3.57798 57.461V53.1033C3.59587 51.5469 4.66927 50.1981 6.22569 49.7831L18.6055 46.5148C18.9812 46.411 19.3211 46.2035 19.5716 45.8923L26.978 36.5197C27.9977 35.2401 29.572 34.4965 31.2358 34.4965H46.156C48.6963 38.0588 52.2206 40.8774 56.3174 42.624L58.4642 43.5232C58.9115 43.7134 59.4303 43.7134 59.8954 43.5232L62.3105 42.5202C62.4358 42.4684 62.561 42.4165 62.6683 42.3646L64.8688 45.7712C65.0477 46.0652 65.3161 46.29 65.6381 46.4283L72.3289 49.3508C73.5991 49.9041 74.422 51.1319 74.4399 52.4807V57.461Z" fill="black"/>
<path d="M67.626 17.1687C67.0178 16.3897 65.9402 16.2629 65.1755 16.8788L65.1581 16.8969L57.0245 23.799L54.0699 20.194C53.4442 19.4331 52.3493 19.3244 51.6194 19.9766C50.8894 20.6288 50.7852 21.77 51.4108 22.5309L51.4282 22.549L55.4777 27.4946C55.495 27.5308 55.5124 27.549 55.5298 27.5671C55.5472 27.5852 55.5646 27.6214 55.5993 27.6395C55.6167 27.6577 55.6515 27.6939 55.6688 27.712C55.6862 27.7301 55.721 27.7482 55.7384 27.7663C55.7557 27.7845 55.7905 27.8026 55.8253 27.8207C55.86 27.8388 55.8774 27.8569 55.8948 27.875C55.9295 27.8932 55.9469 27.9113 55.9817 27.9294C55.9991 27.9475 56.0338 27.9656 56.0512 27.9656C56.086 27.9837 56.1207 28.0019 56.1555 28.0019C56.1729 28.02 56.2076 28.02 56.225 28.0381C56.2597 28.0562 56.2945 28.0562 56.3293 28.0743C56.3466 28.0743 56.3814 28.0924 56.3988 28.0924C56.4335 28.0924 56.4683 28.1105 56.5031 28.1105C56.5204 28.1105 56.5552 28.1287 56.5726 28.1287C56.6247 28.1287 56.6595 28.1287 56.7116 28.1287C56.729 28.1287 56.7464 28.1287 56.7638 28.1287C56.8159 28.1287 56.868 28.1287 56.9202 28.1287C56.9376 28.1287 56.9376 28.1287 56.9549 28.1287C56.9897 28.1287 57.0418 28.1105 57.0766 28.1105C57.094 28.1105 57.1114 28.1105 57.1287 28.0924C57.1635 28.0924 57.1982 28.0743 57.233 28.0743C57.2504 28.0743 57.2678 28.0562 57.2851 28.0562C57.3199 28.0562 57.3373 28.0381 57.372 28.02C57.3894 28.02 57.4068 28.0019 57.4416 28.0019C57.4589 27.9837 57.4937 27.9837 57.5111 27.9656C57.5285 27.9475 57.5632 27.9475 57.5806 27.9294C57.598 27.9113 57.6327 27.9113 57.6501 27.8932C57.6675 27.875 57.7023 27.8569 57.7196 27.8569C57.737 27.8569 57.7544 27.8207 57.7892 27.8207C57.8065 27.8026 57.8239 27.7845 57.8587 27.7663C57.8761 27.7482 57.8934 27.7482 57.9108 27.7301L67.348 19.723C68.0953 19.0889 68.217 17.9658 67.626 17.1687Z" fill="black"/>
</svg>
