<svg width="76" height="74" fill="none" xmlns="http://www.w3.org/2000/svg"><path d="M37.78 61.18c13.57 0 24.57-10.67 24.57-23.831 0-13.162-11-23.832-24.57-23.832s-24.571 10.67-24.571 23.832 11 23.832 24.57 23.832z" stroke="#000" stroke-width="3"/><path d="M37.78 51.107c7.833 0 14.184-6.16 14.184-13.758 0-7.599-6.351-13.758-14.185-13.758-7.834 0-14.184 6.16-14.184 13.758 0 7.598 6.35 13.758 14.184 13.758z" stroke="#000" stroke-width="3"/><path d="M37.78 2v28.34m0 13.45v28.34m6.64-34.781h29.219M2 37.349h29.06" stroke="#000" stroke-width="3" stroke-linecap="round"/></svg>