<svg width="29" height="29" fill="none" xmlns="http://www.w3.org/2000/svg"><path d="M11.67 11.49c0-1.368-.93-1.368-.93-1.368H6.911v2.935h3.592c.62 0 1.168-.198 1.168-1.567zm-.93 3.595H6.911v3.516h3.652c.55-.016 1.564-.188 1.564-1.71 0-1.824-1.387-1.806-1.387-1.806zm9.802-2.028c-2.032 0-2.315 2.028-2.315 2.028h4.32s.027-2.028-2.005-2.028z" fill="#fff"/><path d="M14.5 0C6.492 0 0 6.492 0 14.5S6.492 29 14.5 29 29 22.508 29 14.5 22.508 0 14.5 0zm3.161 8.558h5.428v1.62H17.66v-1.62zm-2.743 8.497c0 4.015-4.178 3.883-4.178 3.883H3.895V7.784h6.845c2.08 0 3.722 1.148 3.722 3.502s-2.007 2.503-2.007 2.503c2.646 0 2.463 3.266 2.463 3.266zm5.65 2.074c2.187 0 2.11-1.415 2.11-1.415h2.314c0 3.756-4.5 3.499-4.5 3.499-5.402 0-5.055-5.03-5.055-5.03s-.004-5.053 5.054-5.053c5.324 0 4.579 5.71 4.579 5.71h-6.817c0 2.444 2.316 2.29 2.316 2.29z" fill="#fff"/></svg>