<svg width="31" height="29" fill="none" xmlns="http://www.w3.org/2000/svg"><path d="M15.5 0C6.936 0 0 6.657 0 14.868c0 6.57 4.44 12.142 10.598 14.106.775.14 1.06-.32 1.06-.715 0-.353-.014-1.288-.02-2.528-4.312.897-5.221-1.994-5.221-1.994-.705-1.716-1.724-2.175-1.724-2.175-1.404-.922.108-.903.108-.903 1.557.103 2.374 1.532 2.374 1.532 1.382 2.273 3.628 1.616 4.515 1.237.14-.962.538-1.617.981-1.989-3.442-.371-7.06-1.65-7.06-7.347 0-1.622.6-2.949 1.595-3.989-.174-.376-.697-1.887.136-3.935 0 0 1.298-.398 4.262 1.524a15.48 15.48 0 013.875-.501 15.48 15.48 0 013.875.501c2.945-1.922 4.244-1.524 4.244-1.524.833 2.048.31 3.56.155 3.935.988 1.04 1.588 2.367 1.588 3.99 0 5.711-3.623 6.968-7.072 7.334.543.446 1.047 1.358 1.047 2.751 0 1.99-.02 3.588-.02 4.071 0 .39.271.855 1.066.706C26.563 27.004 31 21.428 31 14.868 31 6.658 24.06 0 15.5 0z" fill="#F7EB2A"/></svg>