<svg width="32" height="32" fill="none" xmlns="http://www.w3.org/2000/svg"><circle cx="16" cy="16" r="16" fill="#005BFF"/><path d="M13.974 12.994a.513.513 0 00.521-.503.512.512 0 00-.521-.504.512.512 0 00-.52.504c0 .278.232.503.52.503zm-3.566 8.866a.513.513 0 00.52-.504.512.512 0 00-.52-.504.512.512 0 00-.521.504c0 .278.233.503.52.503zm11.8 0a.513.513 0 00.521-.504.512.512 0 00-.52-.504.512.512 0 00-.521.504c0 .278.233.503.52.503z" fill="#F7EB2A"/><path d="M22.73 21.355a.513.513 0 01-.52.504.522.522 0 01-.47-.287.531.531 0 00.165.027.512.512 0 00.521-.504.49.49 0 00-.05-.217.505.505 0 01.354.477zm-8.235-8.865a.513.513 0 01-.521.504.522.522 0 01-.47-.286.532.532 0 00.166.026.512.512 0 00.52-.503.488.488 0 00-.05-.218.505.505 0 01.355.478zm-3.567 8.865a.513.513 0 01-.52.504.522.522 0 01-.47-.287.532.532 0 00.165.027.512.512 0 00.521-.504.488.488 0 00-.05-.217.505.505 0 01.354.477zm7.896-.499c.83.178 2.076.658 2.86 1.96a.783.783 0 01-.387 1.13c-.432.179-.932-.027-1.094-.452a5.619 5.619 0 00-1.581-2.253c-.178-.154-.03-.434.202-.385z" fill="#F7EB2A"/><path d="M21.297 23.946a.838.838 0 01-.094.033.771.771 0 00.016-.824c-.697-1.157-1.758-1.666-2.568-1.89l-.03-.025c-.177-.153-.03-.434.203-.384.83.177 2.076.658 2.86 1.96a.783.783 0 01-.387 1.13zm-6.665-8.053c-.207-.771-.848-2.473-2.537-2.765a.837.837 0 00-.956.598c-.11.42.14.847.569.974.595.175 1.512.55 2.69 1.35.115.078.27-.025.234-.157zm4.628 3.214c.499-.21 1.677-.578 2.521.153a.522.522 0 01.067.725.566.566 0 01-.756.11c-.337-.229-.912-.538-1.822-.806a.096.096 0 01-.01-.182z" fill="#F7EB2A"/><path d="M21.848 19.985a.545.545 0 01-.16.134.522.522 0 00-.18-.422c-.618-.534-1.413-.481-1.992-.332a8.025 8.025 0 00-.245-.076.096.096 0 01-.012-.182c.5-.21 1.678-.578 2.522.153a.522.522 0 01.067.725zm-8.521-.878c-.5-.21-1.678-.578-2.522.153a.521.521 0 00-.067.725.566.566 0 00.756.11c.337-.229.912-.538 1.822-.806a.096.096 0 00.01-.182zm2.967-6.707c-.487 0-.786.457-.749.942.044.571.385 1.096.652 1.599.042.08.152.08.194 0 .267-.503.608-1.028.652-1.599.037-.485-.262-.942-.75-.942z" fill="#F7EB2A"/><path d="M17.042 13.343c-.044.57-.385 1.095-.652 1.598a.108.108 0 01-.194 0c-.06-.113-.124-.227-.187-.342.218-.399.43-.814.465-1.256.029-.382-.15-.747-.465-.884a.705.705 0 01.284-.058c.487 0 .786.456.749.942zm.283 8.188c.379.379 1.15 1.315.74 2.336a.558.558 0 01-.679.315.533.533 0 01-.372-.645c.102-.385.2-1.014.139-1.932-.006-.09.107-.138.172-.074z" fill="#F7EB2A"/><path d="M18.063 23.867a.558.558 0 01-.782.273.534.534 0 00.248-.273c.295-.733-.02-1.423-.36-1.893a8.256 8.256 0 00-.017-.369c-.007-.09.107-.139.172-.074.378.379 1.15 1.315.739 2.336zm-4.3-3.011c-.83.178-2.075.658-2.86 1.96a.783.783 0 00.388 1.13c.431.179.932-.027 1.094-.452a5.619 5.619 0 011.58-2.253c.179-.154.031-.434-.202-.385zm5.213-3.929c.522-.357 1.787-1.056 2.94-.41a.617.617 0 01.257.818.66.66 0 01-.842.302c-.445-.184-1.183-.407-2.297-.503-.11-.01-.148-.146-.058-.207z" fill="#F7EB2A"/><path d="M22.173 17.335a.625.625 0 01-.115.16.622.622 0 00-.322-.57c-.966-.54-2.01-.14-2.63.216a3.255 3.255 0 00-.073-.007c-.109-.01-.147-.145-.057-.207.522-.357 1.786-1.056 2.94-.41a.617.617 0 01.257.818zm-6.909 4.196c-.379.379-1.15 1.315-.74 2.336a.56.56 0 00.679.315.533.533 0 00.372-.645c-.103-.385-.2-1.014-.139-1.932.006-.09-.107-.138-.172-.074zm-1.652-4.604c-.523-.357-1.787-1.056-2.94-.41a.617.617 0 00-.258.818.66.66 0 00.843.302c.445-.184 1.183-.407 2.297-.503.11-.01.148-.146.058-.207zm4.343-1.034c.207-.771.849-2.473 2.538-2.765a.837.837 0 01.955.598c.11.42-.14.847-.569.974-.595.175-1.511.55-2.69 1.35-.114.078-.269-.025-.234-.157z" fill="#F7EB2A"/><path d="M21.458 13.769a.852.852 0 00-.673-.17c-1.41.244-2.09 1.471-2.397 2.318l-.198.132c-.115.079-.27-.024-.235-.156.207-.771.849-2.473 2.538-2.765a.837.837 0 01.965.641zm-4.876 2.572l.468.918a.32.32 0 00.241.17l1.048.147a.307.307 0 01.178.527l-.758.715a.303.303 0 00-.093.274l.18 1.009c.044.253-.23.445-.465.326l-.937-.476a.33.33 0 00-.298 0l-.938.476c-.234.12-.509-.073-.464-.326l.179-1.01a.303.303 0 00-.092-.273l-.758-.715a.307.307 0 01.177-.527l1.048-.148a.32.32 0 00.241-.169l.469-.918a.325.325 0 01.574 0z" fill="#F7EB2A"/><path d="M17.758 18.818a.303.303 0 00-.093.274l.18 1.009c.044.252-.23.445-.465.326l-.21-.107a.318.318 0 00.13-.316l-.19-1.07a.321.321 0 01.098-.29l.804-.758a.316.316 0 00.083-.345l.243.034c.263.037.368.35.178.528l-.758.715z" fill="#F7EB2A"/><path d="M6 14.729v-1.744l3.953-3.179L16 5v4.031L6 14.73z" fill="#fff"/><path d="M26 14.729v-1.745l-3.953-3.178L16 5v4.031l10 5.698z" fill="#9EC1FF"/><path fill-rule="evenodd" clip-rule="evenodd" d="M15.898 10.604l-7.682 3.71v9.23l7.682 3.77v-16.71zm-4.663 3.748l-1.88.756.01 3.549 1.87.024v-4.329zm.51-.158l2.692-1.027v5.508h-2.692v-4.48zm-.514 4.97H9.376v3.584l1.855.75v-4.335zm.51-.016h2.751l.071 5.503-2.822-.973v-4.53z" fill="#fff"/></svg>