<svg width="81" height="79" fill="none" xmlns="http://www.w3.org/2000/svg"><path d="M51.574 10.741C51.574 4.82 46.606 0 40.5 0S29.426 4.819 29.426 10.741c0 5.923 4.968 10.742 11.074 10.742s11.074-4.819 11.074-10.742zM40.5 18.414c-4.362 0-7.91-3.442-7.91-7.673 0-4.23 3.548-7.672 7.91-7.672s7.91 3.442 7.91 7.672c0 4.231-3.548 7.673-7.91 7.673zM18.668 42.966c2.9 0 5.947-.495 8.509-1.355.723 3.68 1.454 7.45 1.876 11.003-7.094.213-11.92.708-15.505 1.58-5.21 1.268-7.853 3.53-7.853 6.725 0 3.74 3.807 8.07 10.183 11.584.766.422 1.73.155 2.157-.576a1.51 1.51 0 00-.594-2.092c-5.928-3.267-8.582-6.832-8.582-8.916 0-4.286 12.543-5.067 21.978-5.282a23.414 23.414 0 009.663 2.08c3.304 0 6.607-.694 9.663-2.08 9.434.215 21.978.996 21.978 5.282 0 5.15-10.848 10.418-16.034 12.11a9.144 9.144 0 00-3.373-5.294 9.987 9.987 0 00-1.603-1.007c2.632-1.041 5.175-1.972 8.353-1.972.874 0 1.582-.688 1.582-1.535s-.708-1.534-1.582-1.534c-4.018 0-7.106 1.228-10.093 2.416-1.796.715-3.492 1.39-5.369 1.8l-.022.004c-.916.213-2.245.383-3.5.383-3.395 0-6.065-1.062-8.892-2.187-2.986-1.188-6.074-2.416-10.092-2.416-.874 0-1.582.687-1.582 1.534 0 .848.708 1.535 1.582 1.535 3.395 0 6.065 1.062 8.891 2.186 2.987 1.188 6.074 2.417 10.093 2.417 1.554 0 3.15-.213 4.303-.48 2.137-.477 4.31-.018 5.96 1.257 1.252.967 2.048 2.282 2.303 3.776a50.586 50.586 0 01-22.779.544c-.855-.175-1.694.355-1.875 1.184-.181.829.365 1.643 1.22 1.819A54.125 54.125 0 0040.5 78.566c19.008 0 34.805-10.167 34.805-17.647 0-7.584-15.01-8.054-23.357-8.305.422-3.553 1.151-7.321 1.874-10.998 2.563.866 5.567 1.35 8.51 1.35 8.44 0 18.217-4.589 18.666-12.499a1.52 1.52 0 00-.676-1.343 1.623 1.623 0 00-1.532-.15c-2.559 1.075-6.05 1.716-9.339 1.716-9.06 0-13.755-4.492-14.277-4.712-4.197-2.91-9.293-4.495-14.562-4.495h-.224c-1.651 0-3.308.157-4.924.466-4.417.797-9.39 3.54-10.193 4.424-4.052 2.973-8.713 4.317-13.722 4.317-3.29 0-6.78-.641-9.339-1.715a1.624 1.624 0 00-1.532.149 1.52 1.52 0 00-.676 1.343c.45 7.933 10.264 12.499 18.666 12.499zm13.6 9.931c-.878-8.034-3.317-16.823-4.147-24.73a22.077 22.077 0 016.05-2.753v2.207c0 3.384 2.84 6.138 6.329 6.138 3.49 0 6.328-2.754 6.328-6.138v-2.207a22.09 22.09 0 016.05 2.754c-.817 7.834-3.265 16.682-4.146 24.73a20.244 20.244 0 01-16.464 0zM69.45 33.76c2.596 0 5.321-.362 7.73-1.004-1.97 4.058-8.056 7.142-14.849 7.142-2.735 0-5.606-.492-7.912-1.336.546-2.83 1.05-5.614 1.404-8.35 3.696 2.242 8.638 3.548 13.627 3.548zm-28.839-9.207c1.02 0 2.042.07 3.052.205v2.864c0 1.692-1.42 3.069-3.164 3.069-1.745 0-3.164-1.377-3.164-3.07v-2.863a23.018 23.018 0 013.052-.205h.224zM11.55 33.759c4.99 0 9.932-1.306 13.629-3.548.358 2.766.872 5.6 1.402 8.348-2.306.846-5.172 1.338-7.912 1.338-6.793 0-12.878-3.084-14.849-7.142a30.774 30.774 0 007.73 1.004z" fill="#000"/><path d="M23.098 75.651c.873 0 1.582-.687 1.582-1.535 0-.847-.709-1.535-1.582-1.535-.874 0-1.582.688-1.582 1.535 0 .848.708 1.535 1.582 1.535z" fill="#000"/></svg>