<svg width="50" height="61" fill="none" xmlns="http://www.w3.org/2000/svg"><path d="M24.563 2.193L2.724 11.039a1.18 1.18 0 00-.526.424c-.129.188-.198.41-.198.635v18.786A25.731 25.731 0 005.552 43.92c2.33 3.972 5.685 7.288 9.736 9.622l9.702 5.598 9.571-5.575c4.017-2.344 7.34-5.656 9.648-9.614a25.751 25.751 0 003.522-12.973V11.039c0-.236-.073-.466-.211-.66a1.183 1.183 0 00-.561-.423L25.429 2.17a1.222 1.222 0 00-.866.023v0z" stroke="#000" stroke-width="3"/><path d="M25.085 14.402l4.323 8.489a.185.185 0 00.119.092l9.666 1.36a.15.15 0 01.133.106.145.145 0 01-.05.158l-6.982 6.6a.135.135 0 000 .138l1.65 9.33a.157.157 0 01-.064.157.17.17 0 01-.173.016l-8.633-4.412a.182.182 0 00-.155 0l-8.633 4.412a.17.17 0 01-.174-.016.157.157 0 01-.064-.157l1.651-9.33a.168.168 0 000-.138l-6.982-6.6a.145.145 0 010-.232.158.158 0 01.083-.033l9.654-1.359a.181.181 0 00.13-.092l4.311-8.49a.158.158 0 01.19 0v0z" stroke="#000" stroke-width="3" stroke-linecap="round"/></svg>