<svg width="88" height="88" fill="none" xmlns="http://www.w3.org/2000/svg"><circle cx="43.994" cy="44.006" r="42.994" fill="#005BFF" stroke="#fff" stroke-width="2"/><path d="M37.367 33.654c.942 0 1.705-.737 1.705-1.648 0-.91-.764-1.648-1.705-1.648-.942 0-1.705.738-1.705 1.648 0 .91.763 1.648 1.705 1.648zM25.693 62.667c.942 0 1.705-.738 1.705-1.648 0-.91-.763-1.648-1.705-1.648-.941 0-1.705.737-1.705 1.648 0 .91.764 1.648 1.705 1.648zm38.622 0c.942 0 1.705-.738 1.705-1.648 0-.91-.763-1.648-1.705-1.648-.941 0-1.705.737-1.705 1.648 0 .91.764 1.648 1.705 1.648z" fill="#F7EB2A"/><path d="M66.02 61.018c0 .91-.763 1.648-1.705 1.648a1.708 1.708 0 01-1.538-.938c.17.056.353.086.543.086.942 0 1.705-.737 1.705-1.647 0-.254-.06-.495-.166-.71.675.218 1.162.835 1.162 1.56zM39.071 32.006c0 .91-.764 1.648-1.705 1.648a1.708 1.708 0 01-1.538-.937c.17.055.352.086.543.086.942 0 1.705-.738 1.705-1.648a1.6 1.6 0 00-.167-.71c.676.218 1.162.835 1.162 1.561zM27.398 61.018c0 .91-.764 1.648-1.706 1.648a1.708 1.708 0 01-1.538-.938c.17.056.353.086.543.086.942 0 1.705-.737 1.705-1.647a1.6 1.6 0 00-.167-.71c.676.218 1.163.835 1.163 1.56zm25.843-1.633c2.717.58 6.792 2.152 9.359 6.415.812 1.35.217 3.082-1.267 3.697-1.412.585-3.05-.088-3.58-1.481a18.384 18.384 0 00-5.175-7.374c-.582-.502-.099-1.42.663-1.258z" fill="#F7EB2A"/><path d="M61.332 69.497a2.723 2.723 0 01-.307.107 2.524 2.524 0 00.052-2.697c-2.28-3.787-5.752-5.451-8.404-6.182-.03-.028-.063-.055-.095-.083-.582-.502-.099-1.42.663-1.258 2.717.58 6.792 2.153 9.359 6.416.812 1.35.217 3.082-1.268 3.697zM39.515 43.14c-.676-2.523-2.777-8.091-8.304-9.047-1.41-.243-2.774.614-3.127 1.956-.361 1.373.46 2.774 1.86 3.187 1.949.574 4.948 1.8 8.803 4.416.378.257.883-.08.768-.512zm15.148 10.521c1.634-.686 5.49-1.893 8.253.501.705.611.798 1.647.218 2.37-.592.74-1.681.898-2.474.36-1.102-.748-2.983-1.76-5.961-2.636a.314.314 0 01-.036-.595z" fill="#F7EB2A"/><path d="M63.134 56.532a1.793 1.793 0 01-.52.442 1.708 1.708 0 00-.595-1.382c-2.02-1.75-4.623-1.576-6.516-1.088a30.288 30.288 0 00-.804-.248.314.314 0 01-.036-.595c1.635-.686 5.49-1.893 8.253.5.705.612.798 1.648.218 2.371zM35.25 53.661c-1.635-.686-5.49-1.893-8.254.501a1.707 1.707 0 00-.218 2.37c.593.74 1.682.898 2.474.36 1.102-.748 2.983-1.76 5.962-2.636a.314.314 0 00.036-.595zm9.705-21.951c-1.594 0-2.573 1.495-2.45 3.084.143 1.868 1.26 3.584 2.132 5.232.14.263.497.263.636 0 .872-1.648 1.989-3.364 2.133-5.232.122-1.588-.857-3.084-2.451-3.084z" fill="#F7EB2A"/><path d="M47.406 34.794c-.144 1.868-1.26 3.585-2.133 5.233a.355.355 0 01-.636 0c-.196-.37-.405-.745-.61-1.123.712-1.304 1.408-2.662 1.52-4.11.096-1.25-.49-2.443-1.522-2.894.28-.121.591-.19.93-.19 1.594 0 2.573 1.496 2.45 3.084zm.924 26.8c1.239 1.237 3.765 4.301 2.418 7.644-.343.853-1.314 1.301-2.218 1.032-.926-.276-1.461-1.206-1.219-2.113.336-1.26.654-3.318.455-6.321-.02-.295.351-.454.563-.242z" fill="#F7EB2A"/><path d="M50.745 69.238c-.343.853-1.313 1.301-2.218 1.032a1.828 1.828 0 01-.34-.14 1.75 1.75 0 00.81-.892c.967-2.4-.063-4.657-1.18-6.197a27.361 27.361 0 00-.053-1.205c-.02-.294.35-.454.562-.242 1.24 1.237 3.766 4.301 2.42 7.644zm-14.073-9.853c-2.716.58-6.792 2.152-9.358 6.415-.813 1.35-.218 3.082 1.267 3.697 1.412.585 3.049-.088 3.58-1.481a18.384 18.384 0 015.174-7.374c.583-.502.1-1.42-.663-1.258zm17.059-12.859c1.711-1.17 5.848-3.456 9.625-1.343.963.54 1.328 1.71.84 2.678-.497.99-1.712 1.424-2.758.989-1.454-.604-3.87-1.332-7.517-1.648-.357-.03-.483-.476-.19-.676z" fill="#F7EB2A"/><path d="M64.196 47.861a2.04 2.04 0 01-.378.525 2.035 2.035 0 00-1.054-1.868c-3.16-1.768-6.574-.455-8.606.706a10.894 10.894 0 00-.237-.022c-.358-.03-.483-.475-.19-.676 1.711-1.17 5.848-3.457 9.625-1.343.963.54 1.328 1.71.84 2.678zM41.585 61.594c-1.24 1.237-3.766 4.301-2.42 7.644.344.853 1.315 1.301 2.22 1.032.925-.276 1.46-1.206 1.218-2.113-.336-1.26-.654-3.318-.455-6.321.02-.295-.351-.454-.563-.242zm-5.403-15.068c-1.71-1.17-5.848-3.456-9.624-1.343-.963.54-1.328 1.71-.84 2.678.497.99 1.711 1.424 2.758.989 1.454-.604 3.87-1.332 7.517-1.648.357-.03.482-.476.19-.676zm14.215-3.386c.676-2.523 2.777-8.092 8.303-9.047 1.41-.243 2.774.614 3.127 1.956.362 1.373-.459 2.774-1.86 3.187-1.948.574-4.948 1.8-8.803 4.416-.377.257-.883-.08-.767-.512z" fill="#F7EB2A"/><path d="M61.86 36.19a2.789 2.789 0 00-2.203-.556c-4.617.797-6.843 4.814-7.845 7.586-.213.14-.428.284-.647.432-.378.257-.884-.08-.768-.512.676-2.523 2.776-8.092 8.304-9.047 1.41-.244 2.773.614 3.126 1.956.013.047.023.094.032.14zm-15.965 8.418l1.534 3.004c.153.298.448.506.79.554l3.428.481c.86.121 1.203 1.142.581 1.728l-2.481 2.338a.992.992 0 00-.302.897l.586 3.301c.147.828-.751 1.459-1.52 1.068l-3.067-1.559a1.08 1.08 0 00-.976 0l-3.067 1.56c-.769.39-1.667-.241-1.52-1.069l.586-3.301a.992.992 0 00-.302-.897l-2.481-2.338c-.622-.586-.279-1.607.58-1.728l3.43-.481c.341-.048.636-.255.789-.554l1.534-3.004c.384-.753 1.494-.753 1.878 0z" fill="#F7EB2A"/><path d="M49.746 52.713a.992.992 0 00-.301.896l.585 3.302c.147.828-.751 1.458-1.52 1.068l-.684-.348c.31-.226.5-.606.424-1.037l-.621-3.502a1.05 1.05 0 01.319-.95l2.631-2.48c.338-.318.408-.757.273-1.127l.795.112c.86.12 1.202 1.142.58 1.728l-2.48 2.338z" fill="#F7EB2A"/><path d="M11.268 39.333v-5.708l12.938-10.402 19.788-15.73v13.193L11.268 39.333z" fill="#fff"/><path d="M76.722 39.331v-5.708L63.783 23.222 43.995 7.492v13.193L76.722 39.33z" fill="#9EC1FF"/><path fill-rule="evenodd" clip-rule="evenodd" d="M43.663 25.834L18.522 37.97v30.21l25.14 12.34V25.833zM28.4 38.1l-6.152 2.474.032 11.613 6.12.08V38.101zm1.67-.519l8.809-3.361v18.024h-8.81V37.582zm-1.684 16.263h-6.072v11.73l6.072 2.457V53.845zm1.67-.05h9.003l.233 18.008-9.237-3.182V53.795z" fill="#fff"/></svg>