<svg width="56" height="56" fill="none" xmlns="http://www.w3.org/2000/svg"><g clip-path="url(#clip0)" fill="#000"><path d="M15.586 30.758A41.65 41.65 0 0028 32.655a41.65 41.65 0 0012.413-1.897.933.933 0 10-.554-1.783 39.672 39.672 0 01-23.713 0 .933.933 0 00-.554 1.783h-.006zm.137-5.569c4.062.628 8.167.942 12.277.939 4.11.003 8.215-.311 12.277-.94a.933.933 0 10-.287-1.843 78.844 78.844 0 01-23.98 0 .933.933 0 00-.287 1.844zM39.73 35.56a26.723 26.723 0 01-23.462 0 .933.933 0 10-.804 1.68 28.56 28.56 0 0025.071 0 .933.933 0 10-.804-1.68z"/><path d="M52.267 16.8h-4.839a2.8 2.8 0 00-2.628-1.867h-1.41a11.514 11.514 0 01-8.878-4.368 8.393 8.393 0 00-13.022 0 11.515 11.515 0 01-8.88 4.368H11.2A2.8 2.8 0 008.572 16.8H3.733A3.733 3.733 0 000 20.533V25.2c0 4.906 4.392 9.42 9.723 10.156a20.12 20.12 0 0016.738 13.09c1.023.116 2.056.116 3.08 0a20.12 20.12 0 0016.735-13.09C51.608 34.62 56 30.106 56 25.2v-4.667a3.733 3.733 0 00-3.733-3.733zm-41.067 0h1.41a13.38 13.38 0 0010.329-5.059 6.524 6.524 0 0110.125 0A13.376 13.376 0 0043.391 16.8H44.8c.516 0 .933.418.933.933v.934l-2.8-.005h-.018a14.778 14.778 0 01-11.303-5.745 4.656 4.656 0 00-7.23.009 14.766 14.766 0 01-11.294 5.734h-.021l-2.8.007v-.934c0-.515.418-.933.933-.933zm-9.333 8.4v-4.667c0-1.03.835-1.866 1.866-1.866H8.4V28a21.13 21.13 0 00.695 5.341c-3.708-.893-7.228-4.06-7.228-8.141zm27.479 21.39c-.895.1-1.797.1-2.692 0a18.263 18.263 0 01-15.342-12.373v-.01A19.132 19.132 0 0110.267 28v-7.467l2.8-.004a16.536 16.536 0 0012.763-6.424 2.79 2.79 0 014.335-.007 16.636 16.636 0 0012.747 6.43h.021l2.8.005V28a19.133 19.133 0 01-1.042 6.206v.009A18.263 18.263 0 0129.346 46.59zM54.133 25.2c0 4.08-3.52 7.248-7.228 8.143.459-1.744.692-3.54.695-5.343v-9.333h4.667c1.03 0 1.866.835 1.866 1.866V25.2z"/></g><defs><clipPath id="clip0"><path fill="#fff" d="M0 0h56v56H0z"/></clipPath></defs></svg>