<svg width="66" height="74" fill="none" xmlns="http://www.w3.org/2000/svg"><path d="M26.316 26.38c.95 0 1.719-.744 1.719-1.661 0-.918-.77-1.662-1.72-1.662-.949 0-1.718.744-1.718 1.662 0 .917.77 1.661 1.719 1.661zM14.545 55.635c.95 0 1.72-.744 1.72-1.662 0-.918-.77-1.662-1.72-1.662s-1.719.744-1.719 1.662c0 .918.77 1.662 1.72 1.662zm38.945 0c.95 0 1.72-.744 1.72-1.662 0-.918-.77-1.662-1.72-1.662-.949 0-1.718.744-1.718 1.662 0 .918.77 1.662 1.718 1.662z" fill="#F7EB2A"/><path d="M55.209 53.972c0 .918-.77 1.662-1.72 1.662a1.722 1.722 0 01-1.55-.945c.17.056.355.086.547.086.95 0 1.719-.744 1.719-1.661 0-.256-.06-.5-.168-.717.68.221 1.172.843 1.172 1.575zM28.035 24.718c0 .918-.77 1.663-1.72 1.663a1.723 1.723 0 01-1.55-.946c.17.056.355.087.547.087.95 0 1.72-.744 1.72-1.662 0-.256-.061-.499-.169-.716.681.22 1.172.842 1.172 1.574zM16.263 53.972c0 .918-.77 1.662-1.72 1.662a1.722 1.722 0 01-1.55-.945c.171.056.355.086.547.086.95 0 1.72-.744 1.72-1.661 0-.256-.06-.5-.168-.717.68.221 1.171.843 1.171 1.575zm26.059-1.647c2.74.585 6.849 2.171 9.437 6.47.819 1.36.22 3.107-1.278 3.727-1.424.59-3.075-.088-3.61-1.493a18.535 18.535 0 00-5.218-7.436c-.587-.506-.1-1.432.669-1.268z" fill="#F7EB2A"/><path d="M50.48 62.522a2.763 2.763 0 01-.31.107 2.545 2.545 0 00.053-2.719c-2.3-3.818-5.8-5.497-8.473-6.234l-.097-.083c-.587-.507-.1-1.433.67-1.269 2.739.585 6.847 2.172 9.436 6.47.819 1.36.219 3.107-1.278 3.728zM28.483 35.945c-.682-2.544-2.8-8.159-8.373-9.122-1.422-.246-2.797.619-3.153 1.972-.364 1.384.463 2.797 1.876 3.213 1.964.579 4.99 1.815 8.876 4.454.38.258.89-.081.774-.517zm15.273 10.609c1.648-.692 5.536-1.91 8.322.505a1.72 1.72 0 01.22 2.39c-.597.747-1.695.905-2.495.363-1.11-.754-3.007-1.774-6.01-2.658a.317.317 0 01-.037-.6z" fill="#F7EB2A"/><path d="M52.298 49.45a1.8 1.8 0 01-.525.444 1.723 1.723 0 00-.6-1.393c-2.036-1.765-4.66-1.59-6.57-1.097-.26-.085-.53-.168-.81-.25a.317.317 0 01-.037-.6c1.649-.692 5.536-1.91 8.322.505a1.72 1.72 0 01.22 2.39zm-28.116-2.896c-1.648-.692-5.536-1.91-8.322.505a1.721 1.721 0 00-.22 2.39c.597.747 1.695.905 2.495.363 1.11-.754 3.007-1.774 6.01-2.658a.317.317 0 00.037-.6zm9.787-22.134c-1.607 0-2.595 1.508-2.471 3.11.144 1.883 1.27 3.614 2.15 5.275.14.266.5.266.641 0 .88-1.661 2.006-3.392 2.15-5.276.124-1.601-.863-3.109-2.47-3.109z" fill="#F7EB2A"/><path d="M36.439 27.53c-.145 1.883-1.27 3.615-2.15 5.276a.358.358 0 01-.642 0c-.197-.373-.408-.75-.616-1.132.72-1.315 1.42-2.684 1.533-4.144.097-1.26-.494-2.463-1.534-2.918.282-.122.596-.19.938-.19 1.607 0 2.594 1.506 2.47 3.108zm.931 27.023c1.25 1.248 3.797 4.338 2.44 7.708-.347.86-1.325 1.312-2.238 1.04-.933-.278-1.472-1.216-1.228-2.13.339-1.27.66-3.345.458-6.374-.02-.297.354-.458.568-.244z" fill="#F7EB2A"/><path d="M39.807 62.261c-.346.86-1.324 1.312-2.236 1.04a1.841 1.841 0 01-.343-.14 1.76 1.76 0 00.817-.9c.974-2.42-.064-4.696-1.19-6.248a27.542 27.542 0 00-.054-1.216c-.02-.297.353-.458.567-.244 1.25 1.248 3.797 4.338 2.44 7.708zm-14.191-9.936c-2.74.585-6.849 2.171-9.437 6.47-.82 1.36-.22 3.107 1.277 3.727 1.424.59 3.075-.088 3.61-1.493a18.537 18.537 0 015.218-7.436c.587-.506.1-1.432-.668-1.268zM42.817 39.36c1.725-1.18 5.897-3.485 9.704-1.354.972.544 1.34 1.724.848 2.7-.502.998-1.726 1.435-2.781.997-1.466-.609-3.903-1.343-7.58-1.661-.36-.032-.487-.48-.191-.682z" fill="#F7EB2A"/><path d="M53.369 40.706c-.1.2-.23.377-.382.53a2.052 2.052 0 00-1.062-1.884c-3.187-1.783-6.63-.459-8.678.712l-.24-.023c-.36-.03-.486-.479-.19-.681 1.725-1.18 5.896-3.486 9.704-1.354.972.544 1.34 1.724.848 2.7zm-22.8 13.847c-1.25 1.248-3.797 4.338-2.44 7.708.347.86 1.326 1.312 2.238 1.04.933-.278 1.473-1.216 1.229-2.13-.34-1.27-.66-3.345-.459-6.374.02-.297-.354-.458-.568-.244zM25.122 39.36c-1.725-1.18-5.897-3.485-9.704-1.354-.972.544-1.34 1.724-.848 2.7.502.998 1.726 1.435 2.781.997 1.466-.609 3.903-1.343 7.58-1.661.36-.032.487-.48.191-.682zm14.333-3.415c.681-2.544 2.8-8.159 8.372-9.122 1.422-.246 2.797.619 3.154 1.972.364 1.384-.464 2.797-1.877 3.213-1.964.579-4.989 1.815-8.876 4.454-.38.258-.89-.081-.773-.517z" fill="#F7EB2A"/><path d="M51.013 28.937a2.812 2.812 0 00-2.221-.56c-4.655.804-6.9 4.854-7.91 7.65-.215.14-.432.285-.653.435-.38.259-.891-.082-.774-.517.681-2.544 2.8-8.159 8.373-9.122 1.421-.246 2.796.619 3.152 1.972.013.047.024.095.033.142zm-16.097 8.488l1.546 3.03c.154.3.452.51.796.558l3.458.486c.866.121 1.212 1.15.585 1.741L38.8 45.598a1 1 0 00-.304.904l.591 3.33c.148.834-.758 1.47-1.533 1.076l-3.093-1.572a1.089 1.089 0 00-.983 0l-3.093 1.572c-.775.394-1.681-.242-1.533-1.077l.59-3.329a1 1 0 00-.303-.904l-2.502-2.358c-.627-.59-.281-1.62.585-1.742l3.458-.485c.344-.049.642-.258.796-.559l1.546-3.029c.388-.76 1.507-.76 1.895 0z" fill="#F7EB2A"/><path d="M38.8 45.598a1 1 0 00-.304.904l.59 3.33c.149.834-.757 1.47-1.532 1.076l-.69-.351c.312-.228.504-.611.427-1.045l-.626-3.531a1.06 1.06 0 01.322-.959l2.653-2.5c.341-.321.411-.763.275-1.136l.802.112c.866.122 1.212 1.152.585 1.742L38.8 45.598z" fill="#F7EB2A"/><path d="M0 32.106V26.35l13.046-10.488L33 .002v13.301L0 32.106z" fill="#fff"/><path d="M66 32.104V26.35L52.954 15.86 33 0v13.302l33 18.802z" fill="#9EC1FF"/><path fill-rule="evenodd" clip-rule="evenodd" d="M32.666 18.494L7.314 30.733v30.462l25.352 12.44V18.494zm-15.39 12.37l-6.204 2.494.033 11.71 6.17.08V30.864zm1.682-.523l8.883-3.39v18.175h-8.883V30.341zm-1.697 16.398h-6.123v11.828l6.123 2.477V46.74zm1.683-.05h9.08l.234 18.158-9.314-3.209v-14.95z" fill="#fff"/></svg>