<svg width="24" height="25" fill="none" xmlns="http://www.w3.org/2000/svg"><g clip-path="url(#clip0)"><path d="M12.036.754C5.436.756.086 6.108.087 12.708c0 2.285.656 4.523 1.89 6.447l-1.86 4.824a.498.498 0 00.633.648l4.98-1.777c5.602 3.489 12.972 1.776 16.462-3.827 3.489-5.602 1.776-12.973-3.827-16.462a11.95 11.95 0 00-6.33-1.807z" fill="#005BFF"/><path d="M17.733 14.747s-1.22-.598-1.984-.996c-.865-.445-1.88.389-2.359.863a5.992 5.992 0 01-1.998-1.27 5.987 5.987 0 01-1.269-1.998c.474-.479 1.306-1.494.862-2.358a167.72 167.72 0 01-.995-1.985.498.498 0 00-.445-.274H8.55a3 3 0 00-2.49 2.988c0 1.563 1.872 4.567 3.134 5.83 1.262 1.262 4.265 3.133 5.83 3.133a3 3 0 002.988-2.49v-.996a.498.498 0 00-.278-.447z" fill="#fff"/></g><defs><clipPath id="clip0"><path fill="#fff" transform="translate(.084 .747)" d="M0 0h23.916v23.916H0z"/></clipPath></defs></svg>