<svg width="79" height="79" fill="none" xmlns="http://www.w3.org/2000/svg"><path d="M39.5 19.441a1.544 1.544 0 10.001 3.088 1.544 1.544 0 00-.001-3.088zM13.887 47.215a1.544 1.544 0 10-.001-3.087 1.544 1.544 0 000 3.087z" fill="#000"/><path d="M51.844 4.012c-13.891 0-25.292 9.577-26.174 21.64C12.44 26.317 0 35.855 0 48.758c0 5.392 2.134 10.616 6.018 14.756a9.384 9.384 0 01-2.48 8.84 1.543 1.543 0 001.09 2.634 17.02 17.02 0 0011.793-4.766c3.07 1.046 7.075 1.68 10.735 1.68 13.89 0 25.29-9.575 26.174-21.636 3.23-.143 6.59-.74 9.249-1.646a17.02 17.02 0 0011.792 4.767 1.543 1.543 0 001.091-2.634 9.384 9.384 0 01-2.48-8.84C76.866 37.772 79 32.547 79 27.155 79 13.75 65.6 4.012 51.844 4.012zM27.156 68.816c-3.641 0-7.791-.714-10.57-1.82a1.543 1.543 0 00-1.71.391 13.922 13.922 0 01-6.925 4.11 12.478 12.478 0 00.941-9.184 1.54 1.54 0 00-.377-.652c-3.501-3.606-5.43-8.188-5.43-12.903 0-10.873 11.023-20.059 24.071-20.059 12.321 0 23.145 8.568 23.145 20.059 0 11.06-10.383 20.058-23.145 20.058zm43.33-28.757a1.549 1.549 0 00-.378.653 12.478 12.478 0 00.94 9.183 13.918 13.918 0 01-6.924-4.11 1.544 1.544 0 00-1.71-.391c-2.408.958-5.845 1.622-9.09 1.782-.45-5.835-3.36-11.319-8.337-15.39h20.126a1.543 1.543 0 100-3.087H40.247c-3.503-1.783-7.435-2.822-11.483-3.04.886-10.364 10.9-18.561 23.08-18.561 13.047 0 24.07 9.185 24.07 20.058 0 4.715-1.928 9.298-5.429 12.903z" fill="#000"/><path d="M39.5 44.129H20.059a1.543 1.543 0 100 3.086H39.5a1.543 1.543 0 100-3.086zm0 9.258H13.887a1.543 1.543 0 100 3.086H39.5a1.543 1.543 0 100-3.086zm25.613-33.946H45.672a1.543 1.543 0 100 3.086h19.441a1.543 1.543 0 100-3.086z" fill="#000"/></svg>