<svg width="106" height="70" fill="none" xmlns="http://www.w3.org/2000/svg"><path d="M106 18.1c-.002-1.61-.476-3.241-1.522-4.587l-8.4-10.746C94.673.98 92.533.07 90.393.067a7.005 7.005 0 00-3.714 1.041l-8.19 5.095c-.86.55-2.337.926-3.763.917-1.108.005-2.18-.217-2.886-.567l-8.02-3.884c-1.293-.623-2.735-.878-4.185-.88-2.083.01-4.192.521-5.887 1.695l-.935.657-3.186-1.586c-1.553-.762-3.379-1.069-5.223-1.075-1.666.005-3.331.262-4.794.88l-5.462 2.33c-.89.386-2.303.638-3.708.631-1.404.006-2.816-.245-3.705-.63l-5.467-2.333c-.997-.425-2.063-.607-3.12-.608a9.5 9.5 0 00-3.55.696c-1.122.458-2.164 1.134-2.994 2.061L1.65 15.655a6.467 6.467 0 00.631 9.24l9.285 7.921-4.404 4.595a6.55 6.55 0 00-1.82 4.535 6.533 6.533 0 002.045 4.76l.893.848c.842.799 1.854 1.307 2.913 1.578-.531.977-.821 2.048-.82 3.12a6.544 6.544 0 002.042 4.761l-.002-.001.896.852a6.622 6.622 0 004.56 1.811 6.659 6.659 0 002.576-.52 6.494 6.494 0 001.826 3.18l.896.853a6.617 6.617 0 004.559 1.81 6.64 6.64 0 003.66-1.104c.323 1.039.876 2.023 1.718 2.822l.896.853a6.61 6.61 0 004.557 1.81 6.614 6.614 0 004.783-2.031l3.892-4.066 5.29 4.895a6.589 6.589 0 004.495 1.755 6.602 6.602 0 004.837-2.09l.844-.905c.729-.783 1.205-1.71 1.48-2.676l2.05 1.89a6.62 6.62 0 004.492 1.75 6.627 6.627 0 004.846-2.094l.84-.903a6.494 6.494 0 001.683-3.63c.541.14 1.089.233 1.642.233a6.63 6.63 0 004.842-2.093l.842-.904a6.544 6.544 0 001.76-4.473c0-.495-.071-.988-.181-1.474 1.463-.195 2.882-.847 3.961-2.006l.845-.905a6.555 6.555 0 001.76-4.474 6.548 6.548 0 00-2.104-4.82l-1.58-1.458 14.252-15.757c1.279-1.419 1.87-3.245 1.872-5.043zM12.839 45.78a2.997 2.997 0 01-2.07-.82l-.896-.849a2.96 2.96 0 01-.927-2.164c.002-.75.27-1.483.824-2.06l9.021-9.415a2.993 2.993 0 012.177-.92 3 3 0 012.07.82l.892.85s.922 1.364.925 2.165a2.972 2.972 0 01-.534 1.69l-9.737 10.147a3.038 3.038 0 01-1.745.555zm7.205 9.39a3 3 0 01-2.174.918 2.996 2.996 0 01-2.07-.819l-.897-.851-.002-.002a2.96 2.96 0 01-.923-2.164c0-.75.271-1.483.821-2.06 0 0 12.026-12.518 12.127-12.639a2.988 2.988 0 012.08-.84 2.99 2.99 0 012.07.82l.897.853a2.96 2.96 0 01.925 2.164 2.97 2.97 0 01-.824 2.06l-12.03 12.56zm9.856 5.322a2.989 2.989 0 01-2.173.92 2.992 2.992 0 01-2.07-.82l-.899-.852a2.956 2.956 0 01-.925-2.164c0-.67.228-1.32.664-1.86l8.374-8.74a2.98 2.98 0 012.007-.779 2.99 2.99 0 012.07.82l.9.852c.614.583.922 1.363.924 2.163a2.977 2.977 0 01-.824 2.06l-8.048 8.4zm15.913-.923l-5.082 5.304a2.994 2.994 0 01-2.174.92 2.992 2.992 0 01-2.07-.82l-.897-.852a2.971 2.971 0 01-.925-2.164 2.96 2.96 0 01.824-2.06l5.08-5.303a2.999 2.999 0 012.176-.92 2.99 2.99 0 012.07.82l.9.851c.614.583.92 1.364.922 2.163a2.97 2.97 0 01-.824 2.061zM89.96 45.182a2.959 2.959 0 01-.8 2.032l-.842.903a2.997 2.997 0 01-2.202.948 2.987 2.987 0 01-2.041-.793L69.885 35.15l-2.453 2.627 15.188 14.07a2.987 2.987 0 01.155 4.225l-.84.904a3.002 3.002 0 01-2.201.947 2.992 2.992 0 01-2.04-.792L63.503 44.009l-2.451 2.627 12.595 11.648a2.96 2.96 0 01.918 2.151 2.95 2.95 0 01-.795 2.03l-.842.904a3 3 0 01-2.204.95 2.997 2.997 0 01-2.041-.793L56.112 51.92h-.003l-.002-.002-2.446 2.632.002.002.047.045 6.296 5.81a2.958 2.958 0 01.054 4.092l-.842.905a2.994 2.994 0 01-2.197.946 2.987 2.987 0 01-2.04-.793l-5.48-5.076c.476-.936.742-1.951.742-2.97a6.545 6.545 0 00-2.041-4.76l-.899-.852a6.603 6.603 0 00-4.554-1.81c-.126 0-.254.03-.378.037 0-.03.007-.061.007-.091.002-1.729-2.041-4.762-2.041-4.762l-.897-.85a6.582 6.582 0 00-3.324-1.694c.25-.705.39-1.44.39-2.176a6.551 6.551 0 00-2.041-4.759l-.897-.853a6.616 6.616 0 00-4.556-1.811c-.19 0-.378.038-.567.055a6.544 6.544 0 00-2.021-4.554l-.894-.85a6.612 6.612 0 00-4.557-1.813A6.61 6.61 0 0016.191 28l-2.13 2.223-9.434-8.046a2.886 2.886 0 01-1.019-2.207c.003-.69.238-1.366.739-1.927L14.3 6.895c.395-.443.98-.844 1.664-1.122a5.923 5.923 0 012.187-.43c.633 0 1.226.114 1.701.319l5.465 2.332c1.54.649 3.329.915 5.126.92 1.8-.005 3.586-.271 5.127-.92l5.462-2.331c.842-.367 2.113-.595 3.376-.59 1.398-.009 2.797.28 3.609.695l1.458.727-5.57 3.916a6.45 6.45 0 00-2.753 5.28 6.425 6.425 0 001.284 3.854l-.002-.003.736.989c1.397 1.858 3.576 2.813 5.754 2.817 1.23 0 2.482-.31 3.599-.98l3.331-2.001c.68-.416 1.706-.678 2.767-.673 1.246-.008 2.503.361 3.258.916l9.217 6.608c2.051 1.47 5.392 4.195 7.244 5.91l10.668 9.864c.631.586.95 1.377.952 2.19zm11.493-24.437L87.241 36.46l-6.452-5.965c-2.021-1.865-5.354-4.586-7.59-6.192l-9.214-6.608c-1.562-1.107-3.475-1.585-5.366-1.592-1.61.005-3.23.355-4.63 1.189l-3.33 2a3.38 3.38 0 01-1.737.465c-1.118.004-2.237-.518-2.86-1.367l-.734-.987-.003-.003a2.865 2.865 0 01-.575-1.714 2.869 2.869 0 011.23-2.35l9.85-6.92c.851-.617 2.367-1.05 3.806-1.04 1-.004 1.955.197 2.609.52l8.019 3.885c1.367.656 2.91.925 4.463.928 1.994-.01 4.01-.443 5.671-1.463L88.59 4.15a3.405 3.405 0 011.805-.495c1.106-.002 2.214.499 2.841 1.316l8.399 10.747c.484.616.765 1.484.765 2.384.001 1.006-.354 1.996-.947 2.643z" fill="#000"/></svg>