<svg width="32" height="32" fill="none" xmlns="http://www.w3.org/2000/svg"><g clip-path="url(#clip0)"><path d="M15.991.009C7.161.011.002 7.172.004 16.003c0 3.058.878 6.052 2.529 8.626L.045 31.084a.666.666 0 00.846.867l6.663-2.378c7.496 4.669 17.358 2.377 22.027-5.12 4.668-7.496 2.376-17.358-5.12-22.027A15.99 15.99 0 0015.99.01z" fill="#fff"/><path d="M23.615 18.732s-1.632-.8-2.654-1.333c-1.157-.595-2.516.52-3.156 1.154a8.017 8.017 0 01-2.674-1.697 8.013 8.013 0 01-1.698-2.675c.634-.64 1.747-1.998 1.154-3.155a223.71 223.71 0 01-1.332-2.656.666.666 0 00-.595-.366h-1.332A4.015 4.015 0 007.996 12c0 2.092 2.504 6.111 4.192 7.801 1.689 1.69 5.708 4.192 7.801 4.192a4.015 4.015 0 003.998-3.331V19.33a.666.666 0 00-.372-.598z" fill="#309EEB"/></g><defs><clipPath id="clip0"><path fill="#fff" d="M0 0h32v32H0z"/></clipPath></defs></svg>