<svg width="75" height="75" fill="none" xmlns="http://www.w3.org/2000/svg"><path d="M33.738 51.563L22.723 40.547S37.219 6.34 66.527 8.203c0 0 4.079 27.094-32.789 43.36z" stroke="#000" stroke-width="3"/><path d="M65.625 19.71a12.739 12.739 0 01-7.031-3.608 12.891 12.891 0 01-3.645-7.207m-5.355 22.652a6.422 6.422 0 100-12.844 6.422 6.422 0 000 12.844zM35.871 50.578l-.715 5.484a.282.282 0 00.387.294l9.375-4.067a2.719 2.719 0 001.523-1.898l1.43-6.832m-24.433-4.547l-5.497.703a.269.269 0 01-.28-.375l4.054-9.317a2.731 2.731 0 011.957-1.582l6.82-1.43m-5.308 15.973c-7.676 2.461-8.063 14.614-8.063 14.614s11.813.129 14.754-7.922" stroke="#000" stroke-width="3"/><path d="M12.75 61.898l-4.406 4.418m4.078-12.843l-3.738 3.726m12.339 5.039l-3.726 3.739" stroke="#000" stroke-width="3" stroke-linecap="round"/></svg>