<svg width="78" height="71" fill="none" xmlns="http://www.w3.org/2000/svg"><path d="M73.796 46.203l-6.19-2.714-1.771-2.767c6.905-4.22 11.092-11.552 11.092-19.454V9.907a1.763 1.763 0 00-.984-1.522L60.039.205a1.794 1.794 0 00-1.7.018L42.936 8.385a1.664 1.664 0 00-.895 1.522v11.585a22.438 22.438 0 002.076 9.563h-12.9c-2.772 0-5.402 1.263-7.101 3.39l-7.031 8.905-11.807 3.113C2.165 47.276.018 50.008 0 53.12v4.358c.018 3.822 3.238 6.917 7.192 6.952h.858c1.324 4.634 6.298 7.35 11.092 6.052 3.041-.813 5.42-3.112 6.262-6.052h26.298c1.324 4.634 6.297 7.35 11.092 6.052 3.04-.813 5.42-3.112 6.261-6.052h1.753c3.954-.017 7.174-3.113 7.192-6.952v-4.997c-.018-2.715-1.664-5.153-4.204-6.278zM45.619 10.927L59.27 3.68l14.08 7.263v10.324c-.018 7.902-4.92 15.01-12.452 18.07h-.035l-1.718.71-1.395-.606c-7.371-3.13-12.13-10.168-12.13-17.967V10.927zM16.727 67.283c-3.005 0-5.42-2.352-5.42-5.24 0-2.905 2.432-5.24 5.42-5.24 3.006 0 5.42 2.353 5.42 5.24 0 2.888-2.432 5.223-5.42 5.24zm43.651 0c-3.005 0-5.42-2.352-5.42-5.24 0-2.887 2.433-5.24 5.42-5.24 3.006 0 5.421 2.353 5.421 5.24.018 2.888-2.415 5.223-5.42 5.24zm14.062-9.822h-.018c-.018 1.92-1.628 3.476-3.614 3.493h-1.503c-.644-4.773-5.152-8.127-10.09-7.505-4.043.502-7.245 3.597-7.764 7.505H25.654c-.644-4.773-5.152-8.127-10.09-7.505-4.043.502-7.245 3.597-7.764 7.505h-.608c-1.986-.017-3.596-1.574-3.614-3.493v-4.358c.018-1.556 1.091-2.905 2.648-3.32l12.38-3.268c.375-.104.715-.312.966-.623l7.406-9.372c1.02-1.28 2.594-2.024 4.258-2.024h14.92c2.54 3.563 6.065 6.381 10.161 8.128l2.147.9c.447.19.966.19 1.431 0l2.415-1.004c.126-.052.251-.104.358-.155l2.2 3.406c.18.294.448.519.77.657l6.69 2.923c1.271.553 2.094 1.78 2.112 3.13v4.98z" fill="#000"/><path d="M67.626 17.169a1.71 1.71 0 00-2.45-.29l-.018.018-8.133 6.902-2.955-3.605c-.626-.76-1.72-.87-2.45-.217-.73.652-.835 1.793-.21 2.554l.018.018 4.05 4.946a.248.248 0 00.052.072c.017.018.035.054.07.073l.069.072c.017.018.052.036.07.054.017.019.052.037.086.055a.242.242 0 01.07.054c.034.018.052.036.087.054a.13.13 0 00.07.037.236.236 0 00.104.036c.017.018.052.018.069.036.035.018.07.018.104.036.018 0 .052.018.07.018.035 0 .07.018.104.018.017 0 .052.019.07.019h.382c.035 0 .087-.019.122-.019.017 0 .034 0 .052-.018.035 0 .07-.018.104-.018.017 0 .035-.018.052-.018.035 0 .052-.018.087-.036.017 0 .035-.018.07-.018.017-.018.052-.018.07-.036.017-.018.051-.018.069-.037.017-.018.052-.018.07-.036a.13.13 0 01.069-.036c.017 0 .034-.036.07-.036a.241.241 0 01.069-.055c.017-.018.034-.018.052-.036l9.437-8.007c.747-.634.869-1.757.278-2.554z" fill="#000"/></svg>